<?xml version="1.0" encoding="utf-8"?>
<!-- Generator: Adobe Illustrator 27.9.0, SVG Export Plug-In . SVG Version: 6.00 Build 0)  -->
<svg version="1.1" id="Layer_1" xmlns="http://www.w3.org/2000/svg" xmlns:xlink="http://www.w3.org/1999/xlink" x="0px" y="0px"
	 viewBox="0 0 120 120" style="enable-background:new 0 0 120 120;" xml:space="preserve">
<style type="text/css">
	.st0{opacity:0.47;}
	.st1{fill:#CCCCCC;}
	.st2{fill:#202124;}
	.st3{opacity:0.4;fill:#202124;enable-background:new    ;}
	.st4{fill:#FFAC33;}
	.st5{fill:none;}
</style>
<g class="st0">
	<path class="st1" d="M60,7.7c29.2,0,53,23.5,53,52.3s-23.8,52.3-53,52.3S7,88.8,7,60S30.8,7.7,60,7.7 M60,0.7C26.9,0.7,0,27.3,0,60
		s26.9,59.3,60,59.3s60-26.5,60-59.3S93.1,0.7,60,0.7z"/>
</g>
<path class="st2" d="M58.4,65.8c0,1.7,1.4,3.1,3.1,3.1c0,0,0,0,0,0h6.3c1.7,0,3.1-1.4,3.1-3.1c0,0,0,0,0,0v-9.4h15.7v25.1
	c0,3.5-2.8,6.3-6.3,6.3H48.9c-3.5,0-6.3-2.8-6.3-6.3V56.4h15.7V65.8z"/>
<path class="st3" d="M70.9,56.4v9.4c0,1.7-1.4,3.1-3.1,3.1c0,0,0,0,0,0h-6.3c-1.7,0-3.1-1.4-3.1-3.1c0,0,0,0,0,0v-9.4H70.9z"/>
<path class="st4" d="M65.7,81.1c-0.9-0.8-2.3-0.8-3.3,0l-7.1,5.6c-0.9,0.7-1.9,1.1-3.1,1.1h-9c-0.7,0-1.2-0.5-1.2-1.2
	c0-0.7,0.5-1.2,1.2-1.2c0,0,0,0,0,0h6c1.2,0,2.3-0.8,2.5-2c0-0.1,0-0.3,0-0.4c0-1.3-1.1-2.4-2.4-2.4H37.2c-2.1,0-4.1,0.7-5.7,2
	L28,85.4h-4.2c-0.7,0-1.2,0.5-1.2,1.2v7.3c0,0.7,0.5,1.2,1.2,1.2c0,0,0,0,0,0H51c1.1,0,2.2-0.4,3.1-1.1l11.6-9.2
	c1.1-0.8,1.2-2.4,0.4-3.4C65.9,81.3,65.8,81.2,65.7,81.1L65.7,81.1z"/>
<path class="st5" d="M43.6,43.9v-7.7c1.7,0,3.1-1.2,3.3-2.8c-0.3,1.6-1.7,2.8-3.4,2.8L43.6,43.9c1.8,0,3.3,1.4,3.4,3.2
	C46.9,45.3,45.4,43.9,43.6,43.9z"/>
<path class="st5" d="M64.2,30.3c0.1,0.9,0.5,1.7,1.1,2.3l0,0C64.7,32,64.3,31.2,64.2,30.3z"/>
<path class="st5" d="M51.6,36.7c-0.2,0.6-0.3,1.3-0.3,2c0,2.9,1.9,5.2,4.3,5.2c2.4,0,4.3-2.3,4.3-5.2c0.1-2.1-1.1-4-3-4.9l-3,2.4
	C53.3,36.7,52.4,36.9,51.6,36.7z"/>
<path class="st5" d="M71.1,31.9h2.1c0.7,0,1.2-0.6,1.2-1.2c0-0.7-0.6-1.2-1.2-1.2h-2.1c0,0.1,0,0.2,0,0.3L71.1,31.9z"/>
<path class="st2" d="M46.9,33.3c1.1,0,2.2-0.1,3.3-0.3c2-0.3,4-0.7,6-1.3c0.3-0.1,0.5-0.1,0.7-0.2c1.4-0.3,2.6-0.6,3.8-0.8
	c1.1-0.2,2.3-0.4,3.4-0.4c0.1,0.9,0.5,1.7,1.1,2.3c0.5-0.5,1.1-0.7,1.8-0.7h3.9v-2.2c0-0.1,0-0.2,0-0.3c-0.1-0.9-0.6-1.6-1.4-1.9
	c-4.4-1.7-8.9-0.7-13.3,0.5c-0.2,0.1-0.5,0.1-0.7,0.2c-4.3,1.1-8.6,2.2-12.9,1c-1.1-0.3-2.2,0.3-2.5,1.3c0,0.1-0.1,0.3-0.1,0.5v16.7
	c0,1,0.6,1.9,1.5,2.2c4.6,1.7,9.3,0.6,14-0.6c4.3-1.1,8.6-2.2,12.9-1c1.1,0.3,2.2-0.3,2.5-1.3c0-0.1,0.1-0.3,0.1-0.5v-9.6h-3.4v4.5
	c-1.7,0-3.1,1.2-3.4,2.8c-3.1,0.2-6.3,0.7-9.3,1.5c-0.2,0.1-0.5,0.2-0.8,0.2c-2.4,0.7-4.8,1.1-7.2,1.2c-0.1-1.8-1.7-3.2-3.5-3.2
	v-7.8C45.2,36.1,46.6,34.9,46.9,33.3z"/>
<path class="st3" d="M67.1,36.8c-1.4,0-2.5-1.1-2.5-2.5c0-0.1,0-0.3,0-0.4c0.1-0.5,0.3-1,0.7-1.3c-0.7-0.6-1.1-1.4-1.1-2.3
	c-1.2,0-2.3,0.2-3.4,0.4c-1.2,0.2-2.5,0.5-3.8,0.8c-0.2,0.1-0.5,0.1-0.7,0.2c-2,0.5-4,1-6,1.3c-1.1,0.2-2.2,0.3-3.3,0.3
	c-0.3,1.6-1.7,2.8-3.3,2.8v7.7c1.8,0,3.3,1.4,3.4,3.2c2.4-0.2,4.9-0.6,7.2-1.2c0.3-0.1,0.5-0.1,0.8-0.2c3-0.8,6.2-1.3,9.3-1.5
	c0.3-1.6,1.7-2.8,3.4-2.8v-4.5H67.1z M55.6,43.9c-2.4,0-4.3-2.3-4.3-5.2c0-0.7,0.1-1.3,0.3-2c0.5-1.8,2.1-3.1,4-3.2
	c0.5,0,0.9,0.1,1.3,0.3c1.9,0.9,3.1,2.8,3,4.9C59.9,41.6,58,43.9,55.6,43.9z"/>
<path class="st4" d="M92.9,22.1H65.5c-1.1,0-2.2,0.4-3.1,1.1L56.3,28c4.4-1.1,8.9-2.1,13.3-0.5c0.8,0.3,1.3,1.1,1.4,1.9h2.1
	c0.7,0,1.2,0.6,1.2,1.2c0,0.7-0.6,1.2-1.2,1.2h-6c-0.7,0-1.3,0.3-1.8,0.7l0,0c-0.4,0.3-0.6,0.8-0.7,1.3c0,0.1,0,0.3,0,0.4
	c0,1.4,1.1,2.5,2.5,2.5h12.3c2.1,0,4.1-0.7,5.7-2l3.6-2.9h4.3c0.7,0,1.2-0.6,1.2-1.2v-7.4C94.1,22.6,93.6,22.1,92.9,22.1
	C92.9,22.1,92.9,22.1,92.9,22.1z"/>
</svg>
