<?xml version="1.0" encoding="utf-8"?>
<!-- Generator: Adobe Illustrator 27.9.0, SVG Export Plug-In . SVG Version: 6.00 Build 0)  -->
<svg version="1.1" id="Layer_1" xmlns="http://www.w3.org/2000/svg" xmlns:xlink="http://www.w3.org/1999/xlink" x="0px" y="0px"
	 viewBox="0 0 120 120" style="enable-background:new 0 0 120 120;" xml:space="preserve">
<style type="text/css">
	.st0{opacity:0.47;}
	.st1{fill:#CCCCCC;}
	.st2{fill:#202124;}
	.st3{opacity:0.8;fill:#FFAC33;enable-background:new    ;}
</style>
<g class="st0">
	<path class="st1" d="M60,7c29.3,0,53,23.7,53,53s-23.7,53-53,53S7,89.3,7,60C7,30.7,30.7,7,60,7 M60,0C26.9,0,0,26.9,0,60
		s26.9,60,60,60s60-26.9,60-60S93.1,0,60,0z"/>
</g>
<path class="st2" d="M77.9,50.6c0,0.6-0.2,1.2-0.7,1.7L57,72.7c-0.9,0.9-2.4,0.9-3.3,0c0,0,0,0,0,0L42.8,61.8
	c-0.5-0.5-0.7-1.1-0.7-1.8c0-0.6,0.2-1.2,0.7-1.7l1.7-1.7c0.5-0.4,1.1-0.6,1.7-0.6c0.6,0,1.2,0.2,1.7,0.7l7.6,7.6l16.9-16.9
	c0.9-0.9,2.4-0.9,3.3,0c0,0,0,0,0,0l1.7,1.7C77.7,49.5,77.9,50.1,77.9,50.6z"/>
<path class="st3" d="M90.8,34.8L62.7,23c-1.7-0.7-3.7-0.7-5.4,0L29.2,34.8c-2.6,1.1-4.3,3.6-4.3,6.4c0,37.8,27.7,56.4,35.1,56.4
	c7.5,0,35.2-18.8,35.2-56.4C95.1,38.3,93.4,35.8,90.8,34.8z M77.9,50.6c0,0.6-0.2,1.2-0.7,1.7L57,72.7c-0.9,0.9-2.4,0.9-3.3,0
	c0,0,0,0,0,0L42.8,61.8c-0.5-0.5-0.7-1.1-0.7-1.8c0-0.6,0.2-1.2,0.7-1.7l1.7-1.7c0.5-0.4,1.1-0.6,1.7-0.6c0.6,0,1.2,0.2,1.7,0.7
	l7.6,7.6l16.9-16.9c0.9-0.9,2.4-0.9,3.3,0c0,0,0,0,0,0l1.7,1.7C77.7,49.5,77.9,50.1,77.9,50.6z"/>
</svg>
