<svg xmlns="http://www.w3.org/2000/svg" width="53" height="27" viewBox="0 0 53 27">
    <g data-name="COD - payment icon" transform="translate(-76 -306)">
        <path data-name="Path 11480" d="M2023.986 316.092c.047.071 6.285 3.487 8.467 3.441s9.563-3.819 9.563-3.819l-.945-1.465-8.932 3.5-7.7-2.67z" transform="translate(-1920 8)" style="fill:#fff"/>
        <rect data-name="Rectangle 72" width="40" height="25" rx="6" transform="rotate(180 58 166)" style="fill:#26a6d1"/>
        <g data-name="Ellipse 6" transform="rotate(180 63.5 165.5)" style="fill:#d0f0fb;stroke:#fff;stroke-width:2px">
            <circle cx="11.5" cy="11.5" r="11.5" style="stroke:none"/>
            <circle cx="11.5" cy="11.5" r="12.5" style="fill:none"/>
        </g>
        <g data-name="Group 85">
            <path data-name="Path 11478" d="m2026.646 1223.765 7.277-3.067 7.156 3.067v8.179l-7.156 2.706z" transform="translate(-1918.466 -908.188)" style="fill:#fff"/>
            <path data-name="Path 11474" d="M15.548 3.345a.086.086 0 0 0 0-.019v-.043c0-.007 0-.014-.006-.021a.263.263 0 0 0-.01-.03.283.283 0 0 0-.023-.046.269.269 0 0 0-.015-.023l-.017-.023-.018-.021-.029-.019-.015-.013a.407.407 0 0 0-.111-.066L7.917.028a.378.378 0 0 0-.286 0L.248 3.017a.274.274 0 0 0-.039.017.118.118 0 0 0-.023.012.162.162 0 0 0-.023.015l-.016.012-.017.012-.011.015-.019.017-.018.021-.017.023a.161.161 0 0 0-.015.023.283.283 0 0 0-.023.046.36.36 0 0 0-.021.07v.021a.086.086 0 0 0 0 .019.2.2 0 0 0 0 .029v8.061a.38.38 0 0 0 .238.353l7.394 2.994h.006a.378.378 0 0 0 .056.023.38.38 0 0 0 .069.007.385.385 0 0 0 .067-.007.376.376 0 0 0 .064-.019h.005l7.394-2.994a.38.38 0 0 0 .237-.353v-8.06a.2.2 0 0 0 0-.029M7.775.79l6.381 2.583-2.128.862-6.382-2.583zM3.711 2.435l6.381 2.583-2.317.938-6.382-2.583zm11.077 8.743-6.633 2.686V6.623l2.552-1.033V9.1l1.613-.622V4.937l2.468-1z" transform="translate(107.51 312.191)" style="fill:#26a6d1"/>
        </g>
        <g data-name="Group 86">
            <g data-name="Group 72">
                <path data-name="Path 11436" d="M14.41 5.511c.745.1 1.491.263 2.217.416l.107.022.036-.007a9.881 9.881 0 0 0 2.486-.766.1.1 0 0 1 .121.046 1.362 1.362 0 0 0 1.138.671 1.211 1.211 0 0 0 .61-.167.1.1 0 0 1 .048-.016l.006.011.26.641.147-.03a5.966 5.966 0 0 0 .793-.205l.183-.062-1.114-2.747a.632.632 0 0 0-.589-.435.905.905 0 0 0-.594.261c-1.624 1.467-3.775 1.74-5.855 2z" transform="translate(74.726 309.05)" style="fill:#fff"/>
                <path data-name="Path 11437" d="m5.433 12.314.359.884c.069.169.172.2.245.2s.2-.025.24-.255l.043-.239-.175-3.449a1.344 1.344 0 0 1 .067-.474l.155-.49-.427.285a6.294 6.294 0 0 0-.733.568 1.507 1.507 0 0 0-.349 1.556z" transform="translate(77.556 307.419)" style="fill:#fff"/>
                <path data-name="Path 11438" d="M13.38 3.868c.348-.044.742-.1 1.121-.15l.038-.006.032-.02a8.677 8.677 0 0 0 1.335-1 .1.1 0 0 1 .129.008 1.433 1.433 0 0 0 .926.359 1.21 1.21 0 0 0 .893-.394.1.1 0 0 1 .042-.03h.006l.1.093.117-.065a6.08 6.08 0 0 0 .688-.445l.154-.113L17.454.269A.651.651 0 0 0 16.94 0a.814.814 0 0 0-.667.453 8.6 8.6 0 0 1-4.064 3.214l.1.343c.359-.055.718-.1 1.067-.142" transform="translate(75.41 309.841)" style="fill:#fff"/>
                <path data-name="Path 11439" d="M22.148 8.112v-.04a.626.626 0 0 0-.649-.6 1.056 1.056 0 0 0-.411.09 6.415 6.415 0 0 1-2.54.483 18.228 18.228 0 0 1-3.693-.525 18.443 18.443 0 0 0-3.767-.533 6.763 6.763 0 0 0-2.681.508 1.507 1.507 0 0 0-.84 1.351l.218 4.078.184-.013c.252-.017.512-.046.8-.089l.163-.025-.146-2.581A.29.29 0 0 1 8.935 10a2.319 2.319 0 0 0 1.24-1.679.155.155 0 0 1 .11-.139 7.41 7.41 0 0 1 .842-.046 18.17 18.17 0 0 1 3.692.525 18.544 18.544 0 0 0 3.767.533 7.9 7.9 0 0 0 .879-.047.1.1 0 0 1 .1.083 1.262 1.262 0 0 0 1.485 1.052.13.13 0 0 1 .053 0 .044.044 0 0 1 0 .014l.166 3.293a.286.286 0 0 1-.145.218 2.3 2.3 0 0 0-1.229 1.643.161.161 0 0 1-.113.145c-.282.031-3.677 0-3.962 0-.757 0 .648.278 1.93.6a15.821 15.821 0 0 0 2.07.549 6.783 6.783 0 0 0 1.834-.471 1.507 1.507 0 0 0 .84-1.351z" transform="translate(76.602 307.807)" style="fill:#fff"/>
            </g>
            <g data-name="Group 73">
                <path data-name="Path 11440" d="m0 18.87 2.508 4.877 1.753-1.069-2.209-4.652z" transform="translate(78.907 304.686)" style="fill:#fff"/>
                <path data-name="Path 11441" d="M13.805 18.693c-.443.186-1.126.46-1.749.671A2 2 0 0 1 9.8 18.69c-.192-.433.288-.658 1.587-1.074s2.935-1.058 2.758-1.587-.8-.593-2.886-.176-2.437.112-3.431.353-4.03 1.554-4.03 1.554l1.861 3.9a1.954 1.954 0 0 1 1.684-.26c.962.3 3.96 1.138 4.345.914a695.91 695.91 0 0 0 4.974-3.15c-.938-.094-2.857-.47-2.857-.47" transform="translate(77.867 305.357)" style="fill:#fff"/>
            </g>
        </g>
    </g>
</svg>
