<svg xmlns="http://www.w3.org/2000/svg" width="120" height="120" viewBox="0 0 120 120"><defs><style>.a{opacity:0.47;}.b{fill:#ccc;}.c{fill:#009246;}.d{fill:#fff;}.e{fill:#ce2b37;}</style></defs><g class="a"><path class="b" d="M60,7.71387c29.2243,0,53,23.45546,53,52.28613s-23.7757,52.28613-53,52.28613S7,88.83067,7,60,30.7757,7.71387,60,7.71387m0-7C26.86292.71387,0,27.25716,0,60s26.86292,59.28613,60,59.28613S120,92.7428,120,60,93.13708.71387,60,.71387Z"></path></g><path class="c" d="M22.5,60A37.50956,37.50956,0,0,0,46.83335,95.11688V24.88312A37.50956,37.50956,0,0,0,22.5,60Z"></path><path class="d" d="M46.83335,24.88312V95.11688a37.56323,37.56323,0,0,0,26.34158-.00323V24.88635a37.56323,37.56323,0,0,0-26.34158-.00323Z"></path><path class="e" d="M97.5,60A37.50946,37.50946,0,0,0,73.17493,24.88635v70.2273A37.50946,37.50946,0,0,0,97.5,60Z"></path></svg>