<svg xmlns="http://www.w3.org/2000/svg" width="120" height="118.57226" viewBox="0 0 120 118.57226"><defs><style>.a{opacity:0.47;}.b{fill:#ccc;}.c{fill:#039;}.d{fill:#fc0;}</style></defs><g class="a"><path class="b" d="M60,7.71387c29.2243,0,53,23.45546,53,52.28613s-23.7757,52.28613-53,52.28613S7,88.83067,7,60,30.7757,7.71387,60,7.71387m0-7C26.86292.71387,0,27.25716,0,60s26.86292,59.28613,60,59.28613S120,92.7428,120,60,93.13708.71387,60,.71387Z" transform="translate(0 -0.71387)"></path></g><circle class="c" cx="60" cy="59.28613" r="37.5"></circle><path class="d" d="M60.41667,30.83333,59.1291,34.79607l1.98136.64378Z" transform="translate(0 -0.71387)"></path><path class="d" d="M60.41667,30.83333l1.28757,3.96274-1.98137.64378Z" transform="translate(0 -0.71387)"></path><path class="d" d="M64.3794,33.71243H60.21274v2.08333Z" transform="translate(0 -0.71387)"></path><path class="d" d="M64.3794,33.71243l-3.3709,2.4491L59.784,34.47608Z" transform="translate(0 -0.71387)"></path><path class="d" d="M62.86577,38.3709,61.5782,34.40817l-1.98137.64378Z" transform="translate(0 -0.71387)"></path><path class="d" d="M62.86577,38.3709l-3.3709-2.4491,1.22455-1.68545Z" transform="translate(0 -0.71387)"></path><path class="d" d="M56.45393,33.71243H60.6206v2.08333Z" transform="translate(0 -0.71387)"></path><path class="d" d="M56.45393,33.71243l3.37091,2.4491,1.22455-1.68545Z" transform="translate(0 -0.71387)"></path><path class="d" d="M57.96756,38.3709l1.28757-3.96273,1.98137.64378Z" transform="translate(0 -0.71387)"></path><path class="d" d="M57.96756,38.3709l3.37091-2.4491-1.22456-1.68545Z" transform="translate(0 -0.71387)"></path><path class="d" d="M60.41667,80.83333,59.1291,84.79607l1.98136.64378Z" transform="translate(0 -0.71387)"></path><path class="d" d="M60.41667,80.83333l1.28757,3.96274-1.98137.64378Z" transform="translate(0 -0.71387)"></path><path class="d" d="M64.3794,83.71243H60.21274v2.08333Z" transform="translate(0 -0.71387)"></path><path class="d" d="M64.3794,83.71243l-3.3709,2.4491L59.784,84.47608Z" transform="translate(0 -0.71387)"></path><path class="d" d="M62.86577,88.3709,61.5782,84.40817l-1.98137.64378Z" transform="translate(0 -0.71387)"></path><path class="d" d="M62.86577,88.3709l-3.3709-2.4491,1.22455-1.68545Z" transform="translate(0 -0.71387)"></path><path class="d" d="M56.45393,83.71243H60.6206v2.08333Z" transform="translate(0 -0.71387)"></path><path class="d" d="M56.45393,83.71243l3.37091,2.4491,1.22455-1.68545Z" transform="translate(0 -0.71387)"></path><path class="d" d="M57.96756,88.3709l1.28757-3.96273,1.98137.64378Z" transform="translate(0 -0.71387)"></path><path class="d" d="M57.96756,88.3709l3.37091-2.4491-1.22456-1.68545Z" transform="translate(0 -0.71387)"></path><path class="d" d="M35.41667,55.83333,34.1291,59.79607l1.98136.64378Z" transform="translate(0 -0.71387)"></path><path class="d" d="M35.41667,55.83333l1.28757,3.96274-1.98137.64378Z" transform="translate(0 -0.71387)"></path><path class="d" d="M39.3794,58.71243H35.21274v2.08333Z" transform="translate(0 -0.71387)"></path><path class="d" d="M39.3794,58.71243l-3.3709,2.4491L34.784,59.47608Z" transform="translate(0 -0.71387)"></path><path class="d" d="M37.86577,63.3709,36.5782,59.40817l-1.98137.64378Z" transform="translate(0 -0.71387)"></path><path class="d" d="M37.86577,63.3709l-3.3709-2.4491,1.22455-1.68545Z" transform="translate(0 -0.71387)"></path><path class="d" d="M31.45393,58.71243H35.6206v2.08333Z" transform="translate(0 -0.71387)"></path><path class="d" d="M31.45393,58.71243l3.37091,2.4491,1.22455-1.68545Z" transform="translate(0 -0.71387)"></path><path class="d" d="M32.96756,63.3709l1.28757-3.96273,1.98137.64378Z" transform="translate(0 -0.71387)"></path><path class="d" d="M32.96756,63.3709l3.37091-2.4491-1.22456-1.68545Z" transform="translate(0 -0.71387)"></path><path class="d" d="M45.46756,41.72027l3.37091-2.44911-1.22456-1.68545Z" transform="translate(0 -0.71387)"></path><path class="d" d="M45.46756,41.72027l1.28757-3.96274,1.98137.64379Z" transform="translate(0 -0.71387)"></path><path class="d" d="M43.95393,37.06179l3.37091,2.44911,1.22455-1.68545Z" transform="translate(0 -0.71387)"></path><path class="d" d="M43.95393,37.06179l4.16667,0v2.08333Z" transform="translate(0 -0.71387)"></path><path class="d" d="M47.91667,34.1827,46.6291,38.14543l1.98136.64379Z" transform="translate(0 -0.71387)"></path><path class="d" d="M47.91667,34.1827l1.28757,3.96273-1.98137.64379Z" transform="translate(0 -0.71387)"></path><path class="d" d="M50.36577,41.72027l-3.3709-2.44911,1.22455-1.68545Z" transform="translate(0 -0.71387)"></path><path class="d" d="M50.36577,41.72027,49.0782,37.75753l-1.98137.64379Z" transform="translate(0 -0.71387)"></path><path class="d" d="M51.8794,37.0618l-3.3709,2.4491L47.284,37.82545Z" transform="translate(0 -0.71387)"></path><path class="d" d="M51.8794,37.0618H47.71274v2.08333Z" transform="translate(0 -0.71387)"></path><path class="d" d="M41.21514,50.8709l-1.28757-3.96273L37.9462,47.552Z" transform="translate(0 -0.71387)"></path><path class="d" d="M41.21514,50.8709l-3.37091-2.4491,1.22456-1.68545Z" transform="translate(0 -0.71387)"></path><path class="d" d="M36.31693,50.8709l3.3709-2.4491-1.22455-1.68545Z" transform="translate(0 -0.71387)"></path><path class="d" d="M36.31693,50.8709l1.28757-3.96273,1.98137.64378Z" transform="translate(0 -0.71387)"></path><path class="d" d="M34.8033,46.21243l3.3709,2.4491,1.22455-1.68545Z" transform="translate(0 -0.71387)"></path><path class="d" d="M34.8033,46.21243H38.97v2.08333Z" transform="translate(0 -0.71387)"></path><path class="d" d="M42.72877,46.21243l-3.37091,2.4491-1.22455-1.68545Z" transform="translate(0 -0.71387)"></path><path class="d" d="M42.72877,46.21243H38.5621v2.08333Z" transform="translate(0 -0.71387)"></path><path class="d" d="M38.766,43.33333l1.28757,3.96274-1.98136.64378Z" transform="translate(0 -0.71387)"></path><path class="d" d="M38.766,43.33333l-1.28757,3.96274,1.98137.64378Z" transform="translate(0 -0.71387)"></path><path class="d" d="M42.72877,71.21243H38.5621v2.08333Z" transform="translate(0 -0.71387)"></path><path class="d" d="M42.72877,71.21243l-3.37091,2.4491-1.22455-1.68545Z" transform="translate(0 -0.71387)"></path><path class="d" d="M41.21514,75.8709l-1.28757-3.96273L37.9462,72.552Z" transform="translate(0 -0.71387)"></path><path class="d" d="M41.21514,75.8709l-3.37091-2.4491,1.22456-1.68545Z" transform="translate(0 -0.71387)"></path><path class="d" d="M36.31693,75.8709l3.3709-2.4491-1.22455-1.68545Z" transform="translate(0 -0.71387)"></path><path class="d" d="M36.31693,75.8709l1.28757-3.96273,1.98137.64378Z" transform="translate(0 -0.71387)"></path><path class="d" d="M38.766,68.33333l1.28757,3.96274-1.98136.64378Z" transform="translate(0 -0.71387)"></path><path class="d" d="M38.766,68.33333l-1.28757,3.96274,1.98137.64378Z" transform="translate(0 -0.71387)"></path><path class="d" d="M34.8033,71.21243H38.97v2.08333Z" transform="translate(0 -0.71387)"></path><path class="d" d="M34.8033,71.21243l3.3709,2.4491,1.22455-1.68545Z" transform="translate(0 -0.71387)"></path><path class="d" d="M51.8794,80.36306H47.71274V82.4464Z" transform="translate(0 -0.71387)"></path><path class="d" d="M51.8794,80.36306l-3.3709,2.44911L47.284,81.12672Z" transform="translate(0 -0.71387)"></path><path class="d" d="M50.36577,85.02154,49.0782,81.0588l-1.98137.64379Z" transform="translate(0 -0.71387)"></path><path class="d" d="M50.36577,85.02154l-3.3709-2.44911L48.21942,80.887Z" transform="translate(0 -0.71387)"></path><path class="d" d="M45.46756,85.02154l3.37091-2.44911L47.61391,80.887Z" transform="translate(0 -0.71387)"></path><path class="d" d="M45.46756,85.02154l1.28757-3.96274,1.98137.64379Z" transform="translate(0 -0.71387)"></path><path class="d" d="M47.91667,77.484l1.28757,3.96273-1.98137.64379Z" transform="translate(0 -0.71387)"></path><path class="d" d="M47.91667,77.484,46.6291,81.4467l1.98136.64379Z" transform="translate(0 -0.71387)"></path><path class="d" d="M43.95393,80.36306H48.1206V82.4464Z" transform="translate(0 -0.71387)"></path><path class="d" d="M43.95393,80.36306l3.37091,2.44911,1.22455-1.68545Z" transform="translate(0 -0.71387)"></path><path class="d" d="M85.41667,55.83333l1.28757,3.96274-1.98137.64378Z" transform="translate(0 -0.71387)"></path><path class="d" d="M85.41667,55.83333,84.1291,59.79607l1.98136.64378Z" transform="translate(0 -0.71387)"></path><path class="d" d="M81.45393,58.71243H85.6206v2.08333Z" transform="translate(0 -0.71387)"></path><path class="d" d="M81.45393,58.71243l3.37091,2.4491,1.22455-1.68545Z" transform="translate(0 -0.71387)"></path><path class="d" d="M82.96756,63.3709l1.28757-3.96273,1.98137.64378Z" transform="translate(0 -0.71387)"></path><path class="d" d="M82.96756,63.3709l3.37091-2.4491-1.22456-1.68545Z" transform="translate(0 -0.71387)"></path><path class="d" d="M89.3794,58.71243H85.21274v2.08333Z" transform="translate(0 -0.71387)"></path><path class="d" d="M89.3794,58.71243l-3.3709,2.4491L84.784,59.47608Z" transform="translate(0 -0.71387)"></path><path class="d" d="M87.86577,63.3709,86.5782,59.40817l-1.98137.64378Z" transform="translate(0 -0.71387)"></path><path class="d" d="M87.86577,63.3709l-3.3709-2.4491,1.22455-1.68545Z" transform="translate(0 -0.71387)"></path><path class="d" d="M75.36577,41.72027l-3.3709-2.44911,1.22455-1.68545Z" transform="translate(0 -0.71387)"></path><path class="d" d="M75.36577,41.72027,74.0782,37.75753l-1.98137.64379Z" transform="translate(0 -0.71387)"></path><path class="d" d="M76.8794,37.06179,73.5085,39.5109,72.284,37.82545Z" transform="translate(0 -0.71387)"></path><path class="d" d="M76.8794,37.06179l-4.16666,0v2.08333Z" transform="translate(0 -0.71387)"></path><path class="d" d="M72.91667,34.1827l1.28757,3.96273-1.98137.64379Z" transform="translate(0 -0.71387)"></path><path class="d" d="M72.91667,34.1827,71.6291,38.14543l1.98136.64379Z" transform="translate(0 -0.71387)"></path><path class="d" d="M70.46756,41.72027l3.37091-2.44911-1.22456-1.68545Z" transform="translate(0 -0.71387)"></path><path class="d" d="M70.46756,41.72027l1.28757-3.96274,1.98137.64379Z" transform="translate(0 -0.71387)"></path><path class="d" d="M68.95393,37.0618l3.37091,2.4491,1.22455-1.68545Z" transform="translate(0 -0.71387)"></path><path class="d" d="M68.95393,37.0618H73.1206v2.08333Z" transform="translate(0 -0.71387)"></path><path class="d" d="M79.6182,50.8709l1.28757-3.96273,1.98136.64378Z" transform="translate(0 -0.71387)"></path><path class="d" d="M79.6182,50.8709l3.3709-2.4491-1.22455-1.68545Z" transform="translate(0 -0.71387)"></path><path class="d" d="M84.51641,50.8709,81.1455,48.4218l1.22455-1.68545Z" transform="translate(0 -0.71387)"></path><path class="d" d="M84.51641,50.8709l-1.28757-3.96273-1.98137.64378Z" transform="translate(0 -0.71387)"></path><path class="d" d="M86.03,46.21243l-3.37091,2.4491-1.22455-1.68545Z" transform="translate(0 -0.71387)"></path><path class="d" d="M86.03,46.21243H81.86337v2.08333Z" transform="translate(0 -0.71387)"></path><path class="d" d="M78.10457,46.21243l3.3709,2.4491L82.7,46.97608Z" transform="translate(0 -0.71387)"></path><path class="d" d="M78.10457,46.21243h4.16666v2.08333Z" transform="translate(0 -0.71387)"></path><path class="d" d="M82.0673,43.33333l-1.28757,3.96274,1.98137.64378Z" transform="translate(0 -0.71387)"></path><path class="d" d="M82.0673,43.33333l1.28757,3.96274-1.98137.64378Z" transform="translate(0 -0.71387)"></path><path class="d" d="M78.10457,71.21243h4.16666v2.08333Z" transform="translate(0 -0.71387)"></path><path class="d" d="M78.10457,71.21243l3.3709,2.4491L82.7,71.97608Z" transform="translate(0 -0.71387)"></path><path class="d" d="M79.6182,75.8709l1.28757-3.96273,1.98136.64378Z" transform="translate(0 -0.71387)"></path><path class="d" d="M79.6182,75.8709l3.3709-2.4491-1.22455-1.68545Z" transform="translate(0 -0.71387)"></path><path class="d" d="M84.51641,75.8709,81.1455,73.4218l1.22455-1.68545Z" transform="translate(0 -0.71387)"></path><path class="d" d="M84.51641,75.8709l-1.28757-3.96273-1.98137.64378Z" transform="translate(0 -0.71387)"></path><path class="d" d="M82.0673,68.33333l-1.28757,3.96274,1.98137.64378Z" transform="translate(0 -0.71387)"></path><path class="d" d="M82.0673,68.33333l1.28757,3.96274-1.98137.64378Z" transform="translate(0 -0.71387)"></path><path class="d" d="M86.03,71.21243H81.86337v2.08333Z" transform="translate(0 -0.71387)"></path><path class="d" d="M86.03,71.21243l-3.37091,2.4491-1.22455-1.68545Z" transform="translate(0 -0.71387)"></path><path class="d" d="M68.95393,80.36306H73.1206V82.4464Z" transform="translate(0 -0.71387)"></path><path class="d" d="M68.95393,80.36306l3.37091,2.44911,1.22455-1.68545Z" transform="translate(0 -0.71387)"></path><path class="d" d="M70.46756,85.02154l1.28757-3.96274,1.98137.64379Z" transform="translate(0 -0.71387)"></path><path class="d" d="M70.46756,85.02154l3.37091-2.44911L72.61391,80.887Z" transform="translate(0 -0.71387)"></path><path class="d" d="M75.36577,85.02154l-3.3709-2.44911L73.21942,80.887Z" transform="translate(0 -0.71387)"></path><path class="d" d="M75.36577,85.02154,74.0782,81.0588l-1.98137.64379Z" transform="translate(0 -0.71387)"></path><path class="d" d="M72.91667,77.484,71.6291,81.4467l1.98136.64379Z" transform="translate(0 -0.71387)"></path><path class="d" d="M72.91667,77.484l1.28757,3.96273-1.98137.64379Z" transform="translate(0 -0.71387)"></path><path class="d" d="M76.8794,80.36306H72.71274V82.4464Z" transform="translate(0 -0.71387)"></path><path class="d" d="M76.8794,80.36306l-3.3709,2.44911L72.284,81.12672Z" transform="translate(0 -0.71387)"></path></svg>