<?xml version="1.0" encoding="UTF-8"?><svg id="Layer_1" xmlns="http://www.w3.org/2000/svg" viewBox="0 0 39.83 24"><defs><style>.cls-1{fill:#eb001b;}.cls-2{fill:#fff;}.cls-3{fill:#6c6bbd;}.cls-4{fill:#0099df;}.cls-5{fill:#231f20;}</style></defs><path id="Rectangle_425" class="cls-2" d="m2.12,0h35.58c1.17,0,2.12.9,2.12,2v20c0,1.1-.95,2-2.12,2H2.12c-1.17,0-2.12-.9-2.12-2V2C0,.9.95,0,2.12,0Z"/><g id="Maestro_2016"><g id="Group_3023"><path id="Path_2951" class="cls-3" d="m23.64,16.51h-7.46V3.11h7.46v13.4Z"/><g id="Group_3019"><path id="Path_2952" class="cls-1" d="m16.66,9.81c0-2.61,1.2-5.09,3.26-6.7-1.5-1.18-3.36-1.83-5.27-1.82-4.71,0-8.52,3.82-8.52,8.52s3.81,8.52,8.52,8.52c1.91,0,3.77-.64,5.27-1.82-2.06-1.61-3.26-4.09-3.26-6.7"/></g><g id="Group_3020"><path id="Path_2953" class="cls-4" d="m33.7,9.81c0,4.71-3.81,8.52-8.52,8.52-1.91,0-3.77-.64-5.27-1.82,2.06-1.61,3.26-4.09,3.25-6.7,0-2.61-1.2-5.09-3.25-6.7,1.5-1.18,3.36-1.82,5.27-1.82,4.71,0,8.52,3.82,8.52,8.52"/></g><g id="Group_3021"><path id="Path_2954" class="cls-5" d="m26.16,20.27c.12,0,.24.02.35.06l-.15.46c-.1-.04-.2-.06-.31-.06-.32,0-.48.21-.48.58v1.27h-.49v-2.26h.49v.28c.12-.21.35-.34.6-.33m-1.83.51h-.8v1.02c0,.23.08.38.33.38.15,0,.3-.05.43-.13l.14.42c-.18.12-.4.18-.61.18-.58,0-.79-.31-.79-.84v-1.03h-.46v-.45h.46v-.69h.5v.69h.8v.45Zm-6.3.48c.02-.32.28-.56.6-.55.31,0,.57.24.57.55h-1.17Zm1.69.2c.06-.6-.38-1.13-.98-1.18-.03,0-.07,0-.1,0-.61-.01-1.12.47-1.13,1.08,0,.04,0,.07,0,.11-.04.62.43,1.15,1.04,1.19.04,0,.08,0,.12,0,.34.01.67-.1.93-.32l-.24-.37c-.19.15-.42.23-.66.24-.34.03-.64-.22-.68-.55h1.68c0-.06.01-.12.01-.19m2.16-.55c-.21-.12-.45-.19-.7-.19-.27,0-.43.1-.43.27s.17.19.38.22l.23.03c.49.07.79.28.79.68,0,.43-.38.74-1.03.74-.35,0-.69-.09-.98-.29l.23-.38c.22.16.48.24.75.24.34,0,.52-.1.52-.28,0-.13-.13-.2-.4-.24l-.23-.03c-.51-.07-.78-.3-.78-.67,0-.45.37-.72.94-.72.32-.01.64.07.92.24l-.22.4Zm6.07-.17c-.1,0-.19.02-.28.05-.08.03-.16.09-.22.15-.06.07-.12.14-.15.23-.04.1-.06.2-.05.3,0,.1.02.2.05.3.03.09.09.16.15.23.06.06.14.12.22.15.09.04.19.05.28.05.1,0,.19-.02.28-.06.08-.03.16-.09.23-.15.07-.07.12-.14.15-.23.04-.1.06-.2.05-.3,0-.1-.02-.2-.05-.3-.03-.09-.09-.16-.15-.23-.07-.06-.14-.11-.23-.14-.09-.04-.19-.05-.28-.05m0-.47c.17,0,.33.03.49.09.14.06.28.14.39.25.11.11.2.24.26.38.06.15.09.31.09.47,0,.16-.03.32-.09.47-.06.14-.15.27-.26.38-.11.11-.24.19-.39.25-.16.06-.32.09-.49.09-.17,0-.33-.03-.49-.09-.14-.06-.28-.14-.39-.25-.11-.11-.2-.24-.25-.38-.06-.15-.09-.31-.09-.47,0-.16.03-.32.09-.47.06-.14.15-.27.25-.38.11-.11.24-.19.39-.25.16-.06.32-.09.49-.09m-12.8,1.19c-.02-.37.26-.7.63-.72.02,0,.04,0,.05,0,.37,0,.68.3.68.67,0,.02,0,.03,0,.05.03.37-.26.7-.63.72-.02,0-.03,0-.05,0-.37,0-.68-.29-.69-.67,0-.02,0-.04,0-.05m1.83,0v-1.13h-.49v.28c-.17-.22-.44-.34-.71-.33-.63,0-1.13.51-1.13,1.13,0,.02,0,.04,0,.05-.03.63.45,1.16,1.08,1.19.02,0,.03,0,.05,0,.28.01.54-.11.71-.33v.27h.49v-1.13Zm-2.77,1.13v-1.42c.03-.46-.32-.87-.78-.9-.04,0-.07,0-.11,0-.32-.02-.63.13-.8.4-.16-.26-.44-.41-.75-.4-.26-.01-.52.11-.66.34v-.28h-.49v2.26h.5v-1.25c-.04-.29.16-.56.45-.6.03,0,.07,0,.1,0,.33,0,.49.21.49.6v1.26h.5v-1.26c-.04-.29.17-.56.46-.6.03,0,.06,0,.09,0,.34,0,.5.21.5.6v1.26h.49Z"/></g><g id="Group_3022"><path id="Path_2955" class="cls-5" d="m29.71,22.42v.06h.05s.02,0,.03,0c0,0,.01-.01.01-.02,0,0,0-.02-.01-.02,0,0-.02,0-.03,0h-.05Zm.05-.04s.04,0,.06.02c.01.01.02.03.02.05,0,.02,0,.03-.02.04-.01.01-.03.02-.05.02l.07.08h-.05l-.06-.08h-.02v.08h-.04v-.21h.1Zm-.01.28s.05,0,.07-.01c.02,0,.04-.02.06-.03.02-.02.03-.04.04-.06,0-.02.01-.05.01-.07,0-.02,0-.05-.01-.07,0-.02-.02-.04-.04-.06-.02-.02-.03-.03-.05-.04-.02,0-.05-.01-.07-.01-.02,0-.05,0-.07.01-.02,0-.04.02-.06.04-.02.02-.03.04-.04.06,0,.02-.01.04-.01.07,0,.02,0,.05.01.07,0,.02.02.04.04.06.02.02.04.03.06.04.02,0,.05.01.07.01m0-.4s.06,0,.09.02c.03.01.05.03.07.05.02.02.04.04.05.07.01.03.02.06.02.09,0,.03,0,.06-.02.09-.01.03-.03.05-.05.07-.02.02-.05.04-.07.05-.03.01-.06.02-.09.02-.03,0-.06,0-.09-.02-.03-.01-.05-.03-.07-.05-.02-.02-.04-.04-.05-.07-.01-.03-.02-.06-.02-.09,0-.03,0-.06.02-.09.01-.03.03-.05.05-.07.02-.02.05-.04.07-.05.03-.01.06-.02.09-.02"/></g></g></g></svg>