<?xml version="1.0" encoding="UTF-8"?><svg id="Layer_1" xmlns="http://www.w3.org/2000/svg" viewBox="0 0 39.83 24"><defs><style>.cls-1{fill:#f79e1b;}.cls-2{fill:#eb001b;}.cls-3{fill:#fff;}.cls-4{fill:#ff5f00;}.cls-5{fill:#231f20;}</style></defs><path id="Rectangle_425" class="cls-3" d="m2.12,0h35.58c1.17,0,2.12.9,2.12,2v20c0,1.1-.95,2-2.12,2H2.12c-1.17,0-2.12-.9-2.12-2V2C0,.9.95,0,2.12,0Z"/><g><path class="cls-5" d="m33.07,22.38v.06h.05s.02,0,.03,0c0,0,.01-.01,0-.02,0,0,0-.02,0-.02,0,0-.02,0-.03,0h-.05Zm.05-.04s.04,0,.06.02c.01.01.02.03.02.05,0,.02,0,.03-.02.04-.01.01-.03.02-.05.02l.07.08h-.05l-.06-.08h-.02v.08h-.04v-.21h.1Zm-.01.28s.05,0,.07-.01c.02,0,.04-.02.05-.04.02-.02.03-.03.04-.06,0-.02.01-.04.01-.07,0-.02,0-.05-.01-.07,0-.02-.02-.04-.04-.06-.02-.02-.03-.03-.05-.04-.02,0-.04-.01-.07-.01-.02,0-.05,0-.07.01-.02,0-.04.02-.06.04-.02.02-.03.03-.04.06,0,.02-.01.04-.01.07,0,.02,0,.05.01.07,0,.02.02.04.04.06.02.02.04.03.06.04.02,0,.04.01.07.01m0-.4s.06,0,.09.02c.03.01.05.03.07.05.02.02.04.04.05.07.01.03.02.06.02.09,0,.03,0,.06-.02.09-.01.03-.03.05-.05.07-.02.02-.05.04-.07.05-.03.01-.06.02-.09.02-.03,0-.06,0-.09-.02-.03-.01-.05-.03-.07-.05-.02-.02-.04-.04-.05-.07-.01-.03-.02-.06-.02-.09,0-.03,0-.06.02-.09.01-.03.03-.05.05-.07.02-.02.05-.04.07-.05.03-.01.06-.02.09-.02m-21-.8c-.02-.37.26-.69.63-.72.02,0,.04,0,.05,0,.37,0,.68.3.68.67,0,.02,0,.03,0,.05.02.37-.26.69-.63.72-.02,0-.03,0-.05,0-.37,0-.68-.29-.68-.67,0-.02,0-.04,0-.05m1.82,0v-1.12h-.49v.27c-.17-.22-.43-.34-.71-.33-.62,0-1.13.51-1.13,1.13,0,.02,0,.03,0,.05-.03.62.45,1.15,1.07,1.18.02,0,.03,0,.05,0,.28.01.54-.11.71-.33v.27h.49v-1.12Zm16.54,0c-.02-.37.26-.69.63-.72.02,0,.04,0,.05,0,.37,0,.68.3.68.67,0,.02,0,.03,0,.05.03.37-.26.69-.63.72-.02,0-.03,0-.05,0-.37,0-.68-.29-.68-.67,0-.02,0-.04,0-.05m1.82,0v-2.03h-.49v1.18c-.17-.22-.43-.34-.71-.33-.62,0-1.13.51-1.13,1.13,0,.02,0,.03,0,.05-.03.62.45,1.15,1.07,1.18.02,0,.03,0,.05,0,.28.01.54-.11.71-.33v.27h.49v-1.12Zm-12.29-.74c.31,0,.56.24.57.55h-1.17c.02-.31.28-.56.6-.55m0-.44c-.61-.01-1.11.47-1.12,1.08,0,.04,0,.07,0,.11-.04.61.42,1.14,1.04,1.18.04,0,.08,0,.12,0,.34.01.66-.1.92-.32l-.24-.36c-.19.15-.42.23-.65.24-.34.03-.63-.22-.67-.55h1.67c0-.06,0-.12,0-.19.06-.59-.38-1.12-.97-1.18-.03,0-.06,0-.1,0m5.91,1.18c-.02-.37.26-.69.63-.72.02,0,.04,0,.05,0,.37,0,.68.3.68.67,0,.02,0,.03,0,.05.02.37-.26.69-.63.72-.02,0-.03,0-.05,0-.37,0-.68-.29-.68-.67,0-.02,0-.04,0-.05m1.82,0v-1.12h-.49v.27c-.17-.22-.43-.34-.71-.33-.62,0-1.13.51-1.13,1.13,0,.02,0,.03,0,.05-.03.62.45,1.15,1.07,1.18.02,0,.03,0,.05,0,.28.01.54-.11.71-.33v.27h.49v-1.12Zm-4.59,0c-.03.63.46,1.16,1.09,1.18.04,0,.07,0,.11,0,.29.01.58-.08.81-.27l-.24-.4c-.17.13-.38.2-.59.2-.37,0-.68-.29-.68-.66,0-.02,0-.04,0-.06-.03-.37.25-.69.62-.72.02,0,.04,0,.06,0,.21,0,.42.07.59.2l.24-.4c-.23-.19-.52-.28-.81-.27-.63-.04-1.16.44-1.2,1.07,0,.04,0,.07,0,.11m6.31-1.18c-.24,0-.47.12-.59.33v-.27h-.49v2.25h.49v-1.26c0-.37.16-.58.48-.58.1,0,.21.02.31.06l.15-.46c-.11-.04-.23-.06-.35-.06m-13.12.24c-.28-.16-.6-.25-.92-.24-.57,0-.94.27-.94.72,0,.37.27.59.78.66l.23.03c.27.04.4.11.4.24,0,.17-.18.27-.51.27-.27,0-.53-.07-.75-.24l-.23.38c.29.2.63.3.98.29.65,0,1.03-.31,1.03-.73,0-.4-.3-.6-.79-.67l-.23-.03c-.21-.03-.38-.07-.38-.22s.16-.26.43-.26c.25,0,.49.07.7.19l.21-.4Zm6.32-.24c-.24,0-.47.12-.59.33v-.27h-.49v2.25h.49v-1.26c0-.37.16-.58.48-.58.1,0,.21.02.31.06l.15-.46c-.11-.04-.23-.06-.35-.06m-4.18.06h-.8v-.68h-.49v.68h-.46v.45h.46v1.04c0,.52.2.83.78.83.22,0,.43-.06.61-.17l-.14-.42c-.13.08-.28.12-.43.13-.24,0-.32-.15-.32-.38v-1.02h.8v-.46Zm-7.32,2.25v-1.41c.03-.46-.32-.86-.78-.89-.04,0-.07,0-.11,0-.32-.02-.62.13-.79.4-.16-.26-.44-.41-.74-.4-.26-.01-.51.11-.66.33v-.28h-.49v2.25h.49v-1.25c-.04-.29.16-.55.45-.6.03,0,.07,0,.1,0,.32,0,.49.21.49.59v1.25h.49v-1.25c-.04-.29.17-.56.46-.6.03,0,.06,0,.09,0,.33,0,.49.21.49.59v1.25h.5Z"/><path class="cls-4" d="m23.62,16.47h-7.42V3.15h7.41v13.32Z"/><path class="cls-2" d="m16.67,9.81c0-2.6,1.19-5.06,3.24-6.67-1.49-1.18-3.34-1.81-5.24-1.81-4.68,0-8.47,3.79-8.47,8.47h0c0,4.68,3.79,8.47,8.47,8.47h0c1.9,0,3.75-.64,5.24-1.81-2.05-1.61-3.24-4.06-3.24-6.66"/><path class="cls-1" d="m33.63,9.81c0,4.68-3.79,8.47-8.47,8.47h0c-1.9,0-3.74-.64-5.24-1.81,2.05-1.61,3.24-4.06,3.24-6.66,0-2.6-1.19-5.06-3.24-6.67,1.49-1.18,3.34-1.81,5.24-1.81,4.68,0,8.47,3.79,8.47,8.47h0"/></g></svg>