<?xml version="1.0" encoding="UTF-8"?><svg id="Layer_1" xmlns="http://www.w3.org/2000/svg" viewBox="0 0 39.83 24"><defs><style>.cls-1{fill:#fff;}.cls-2{fill:#253b80;}.cls-3{fill:#179bd7;}</style></defs><path id="Rectangle_425" class="cls-1" d="m2.12,0h35.58c1.17,0,2.12.9,2.12,2v20c0,1.1-.95,2-2.12,2H2.12c-1.17,0-2.12-.9-2.12-2V2C0,.9.95,0,2.12,0Z"/><g><path class="cls-2" d="m6.99,8.47h-2.65c-.18,0-.34.13-.36.31l-1.07,6.79c-.02.12.06.23.18.25.01,0,.02,0,.03,0h1.26c.18,0,.34-.13.36-.31l.29-1.83c.03-.18.18-.31.36-.31h.84c1.49.17,2.84-.91,3-2.4,0-.04,0-.08.01-.11.15-.59.02-1.22-.34-1.71-.51-.5-1.22-.74-1.93-.68Zm.31,2.48c-.15.95-.87.95-1.57.95h-.4l.28-1.77c.02-.11.11-.19.22-.19h.18c.48,0,.93,0,1.16.27.15.21.2.48.13.74Z"/><path class="cls-2" d="m14.9,10.92h-1.26c-.11,0-.2.08-.22.19l-.06.35-.09-.13c-.39-.4-.94-.6-1.5-.53-1.45.03-2.66,1.11-2.84,2.55-.13.69.04,1.4.47,1.95.41.45,1,.69,1.6.65.66,0,1.29-.26,1.76-.73l-.06.35c-.02.12.06.23.18.25.01,0,.02,0,.03,0h1.14c.18,0,.34-.13.36-.31l.69-4.34c.02-.12-.06-.23-.18-.25-.01,0-.03,0-.04,0Zm-1.76,2.47c-.1.71-.72,1.23-1.43,1.21-.54.06-1.02-.34-1.08-.88-.01-.12,0-.24.03-.36.1-.71.71-1.23,1.42-1.22.32-.02.63.11.85.35.2.25.28.58.21.9Z"/><path class="cls-2" d="m21.65,10.92h-1.28c-.12,0-.23.06-.3.16l-1.76,2.59-.75-2.49c-.05-.16-.19-.26-.35-.26h-1.26c-.12,0-.22.1-.22.22,0,.02,0,.05.01.07l1.4,4.12-1.32,1.86c-.07.1-.05.24.05.31.04.03.08.04.13.04h1.27c.12,0,.23-.06.3-.16l4.24-6.12c.07-.1.05-.24-.05-.31-.04-.02-.08-.04-.12-.04Z"/><path class="cls-3" d="m25.86,8.47h-2.65c-.18,0-.33.13-.36.31l-1.07,6.79c-.02.12.06.23.18.25.01,0,.02,0,.04,0h1.36c.13,0,.23-.09.25-.22l.3-1.93c.03-.18.18-.31.36-.31h.84c1.49.17,2.84-.9,3.01-2.4,0-.04,0-.08.01-.12.15-.59.02-1.22-.34-1.71-.52-.5-1.22-.74-1.93-.68Zm.31,2.48c-.14.95-.87.95-1.57.95h-.4l.28-1.77c.02-.11.11-.19.22-.19h.18c.48,0,.93,0,1.16.27.15.21.2.48.13.74Z"/><path class="cls-3" d="m33.77,10.92h-1.27c-.11,0-.2.08-.22.19l-.06.35-.09-.13c-.39-.4-.94-.6-1.5-.53-1.45.03-2.65,1.12-2.83,2.55-.13.69.04,1.4.47,1.95.41.45,1,.68,1.6.65.66,0,1.29-.26,1.76-.73l-.06.35c-.02.12.06.23.18.25.01,0,.02,0,.03,0h1.14c.18,0,.33-.13.36-.31l.69-4.34c.02-.12-.06-.23-.18-.25-.01,0-.02,0-.03,0Zm-1.77,2.47c-.1.71-.72,1.23-1.43,1.21-.54.06-1.02-.34-1.08-.88-.01-.12,0-.24.03-.36.1-.71.71-1.23,1.42-1.22.32-.02.63.11.85.35.2.25.28.58.21.9Z"/><path class="cls-3" d="m35.26,8.65l-1.09,6.92c-.02.12.06.23.18.25.01,0,.02,0,.04,0h1.09c.18,0,.34-.13.36-.31l1.07-6.8c.02-.12-.06-.23-.18-.25-.01,0-.02,0-.03,0h-1.22c-.11,0-.2.08-.22.19Z"/></g></svg>