<?xml version="1.0" encoding="UTF-8"?><svg id="Layer_1" xmlns="http://www.w3.org/2000/svg" viewBox="0 0 37.91 24"><defs><style>.cls-1{fill:#f7e123;}.cls-2{fill:#0054a4;fill-rule:evenodd;}</style></defs><path id="Rectangle_425" class="cls-1" d="m2.02,0h33.87c1.12,0,2.02.9,2.02,2v20c0,1.1-.9,2-2.02,2H2.02c-1.12,0-2.02-.9-2.02-2V2C0,.9.9,0,2.02,0Z"/><g id="Group_4516"><path id="Path_6890" class="cls-2" d="m5.5,9.64c-.21,0-.41.03-.6.11-.05.01-.11.03-.15.06-.26.13-.49.31-.69.52l.06-.63h-.74l-.05.54-.09.54-1.06,4.65h.81l.49-2.13c.14.2.32.37.54.49.23.12.48.17.74.17h.14c.29-.02.58-.11.83-.26.31-.17.57-.43.74-.74.18-.28.3-.59.37-.92.09-.33.12-.66.09-1-.02-.39-.18-.75-.45-1.03-.26-.25-.62-.38-.98-.37Zm.54,2.23c-.07.28-.18.55-.32.8-.12.22-.29.41-.51.55-.1.05-.2.09-.31.12-.11.03-.23.05-.35.05-.45.02-.83-.32-.86-.77,0,0,0-.02,0-.03-.02-.28,0-.55.08-.82.07-.3.18-.59.32-.86.11-.23.28-.43.49-.58.1-.06.21-.12.32-.15.1-.03.2-.05.31-.05.23,0,.46.08.63.25.16.18.26.42.28.66.02.28,0,.56-.08.84Z"/><path id="Path_6891" class="cls-2" d="m26.12,9.94c-.26-.24-.6-.37-.95-.35-.25,0-.5.05-.72.15-.03.02-.07.03-.11.05-.19.12-.37.26-.54.41l.03-.51h-1.15c-.03.28-.11.71-.23,1.27l-.98,4.45h1.27l.49-2.2c.11.22.29.41.51.52.19.1.39.16.6.17.05,0,.11.02.15.02.64,0,1.23-.33,1.55-.88.41-.62.58-1.37.48-2.1,0-.37-.15-.73-.4-1.01Zm-.91,1.81c-.06.26-.15.52-.26.77-.08.18-.2.35-.35.48-.08.06-.17.1-.26.12-.06.02-.12.03-.18.03-.19,0-.38-.07-.51-.22-.14-.17-.22-.38-.23-.6-.05-.48.05-.96.29-1.38.13-.26.36-.46.63-.57.09-.02.17-.03.26-.03.18,0,.35.06.48.19.13.14.2.32.2.51.01.24,0,.47-.07.71Z"/><path id="Path_6892" class="cls-2" d="m29.11,9.64c-.16,0-.33,0-.49.03-.29.04-.56.13-.81.28-.3.2-.5.53-.52.89h1.21c.02-.11.06-.21.12-.31.02-.05.05-.06.08-.09.12-.09.27-.13.42-.12.12,0,.25.02.35.09.09.06.15.17.15.28,0,.07,0,.13-.01.2-.01.12-.03.24-.06.35h-.35c-.2,0-.4,0-.57.02-.49.02-.97.15-1.4.4-.42.25-.65.72-.58,1.2.01.31.15.6.38.8.25.21.57.32.89.31.24,0,.47-.06.68-.17l.03-.02c.21-.11.39-.28.52-.48,0,.11-.01.2-.01.31v.29h1.16c0-.18,0-.35.01-.54.02-.18.05-.35.09-.52l.32-1.41c.03-.14.06-.28.08-.38.02-.11.02-.23,0-.34-.02-.33-.19-.62-.46-.8-.38-.2-.8-.29-1.23-.26Zm-.12,3.19c-.1.12-.23.22-.37.29-.1.04-.2.07-.31.06-.12,0-.23-.03-.32-.11-.09-.08-.14-.2-.14-.32-.03-.26.11-.51.34-.63.13-.09.27-.16.43-.2.18-.05.36-.07.54-.06h.13s.06,0,.09.02c-.05.35-.18.68-.39.95Z"/><path id="Path_6893" class="cls-2" d="m34.53,9.67l-1.63,2.89-.35-2.89h-1.26l.74,4.21-1.01,1.53h1.35l.75-1.37,2.61-4.38h-1.2Z"/><path id="Path_6894" class="cls-2" d="m10.6,9.94c-.34-.25-.75-.37-1.17-.35-.13,0-.27,0-.4.02-.24.03-.47.09-.69.17-.3.13-.56.32-.75.58-.22.31-.38.66-.48,1.03-.12.37-.16.76-.12,1.14,0,.4.19.79.51,1.04.33.27.75.41,1.18.38.12,0,.25-.02.35-.02.27-.02.54-.09.78-.2.32-.15.58-.39.77-.69.2-.31.34-.64.41-1,.1-.35.14-.72.11-1.09-.02-.39-.2-.76-.51-1.01Zm-.41,1.93c-.07.31-.18.6-.34.88-.11.21-.28.38-.48.51-.1.06-.22.11-.34.14-.1.02-.19.03-.29.03-.48.04-.9-.32-.93-.8,0-.02,0-.04,0-.06-.02-.29,0-.59.08-.88.06-.3.17-.58.32-.84.12-.22.29-.42.49-.57.11-.06.22-.1.34-.14.1-.03.2-.05.31-.05.24-.02.48.07.66.23.18.19.27.43.28.69.01.29-.02.58-.09.85Z"/><path id="Path_6895" class="cls-2" d="m14.31,9.81c-.33-.16-.69-.24-1.06-.22-.44-.02-.88.1-1.24.35-.28.21-.43.55-.4.91.01.22.12.43.29.57.27.23.58.42.91.55.23.09.46.22.66.37.1.08.16.19.17.32.02.2-.08.4-.25.51-.23.14-.49.2-.75.19-.19.02-.38-.02-.54-.12-.12-.08-.2-.22-.2-.37-.01-.05-.01-.1,0-.15,0-.07.02-.14.05-.2h-.83c-.02.09-.03.19-.05.26-.02.08-.02.15,0,.23.02.29.18.55.43.71.34.17.71.26,1.09.25.5.02,1-.12,1.41-.4.34-.21.53-.59.49-.98-.01-.22-.1-.42-.25-.58-.29-.25-.62-.44-.97-.58-.24-.1-.47-.23-.68-.38-.1-.07-.16-.18-.17-.29-.02-.17.05-.35.2-.45.18-.12.39-.18.6-.17.18-.01.35.03.51.12.12.08.19.21.2.35v.23h.75c.01-.08.02-.15.02-.23v-.15c-.01-.27-.16-.51-.4-.63Z"/><path id="Path_6896" class="cls-2" d="m16.65,13.35c-.14.01-.28-.02-.4-.09-.08-.05-.13-.15-.12-.25,0-.07,0-.14.02-.2.01-.13.04-.25.08-.37l.46-2.18h.91l.12-.54h-.91l.25-1.15-.81.2-.22.95h-.76l-.14.54h.77l-.48,2.09c-.03.2-.08.38-.09.57-.02.13-.02.26-.02.38,0,.2.09.38.25.49.2.12.44.18.68.15.11,0,.23-.02.35-.02s.26-.03.41-.05l.14-.61c-.08.02-.16.04-.25.05-.08.02-.16.03-.24.03Z"/><path id="Path_6897" class="cls-2" d="m18.44,11.88h2.99c.05-.18.07-.36.08-.54.01-.16.01-.33,0-.49,0-.37-.17-.73-.46-.97-.37-.23-.8-.33-1.23-.31h-.17c-.29.02-.58.1-.84.23-.29.15-.54.37-.72.64-.19.33-.33.68-.41,1.04-.1.36-.14.73-.11,1.11.01.39.18.75.48,1,.34.25.75.37,1.17.35.15,0,.3-.01.44-.03.31-.04.61-.15.88-.32.35-.22.59-.57.69-.97h-.91c-.07.22-.21.41-.4.54-.08.05-.17.09-.26.12-.11.04-.23.07-.35.06-.24.01-.48-.07-.68-.22-.16-.16-.26-.37-.28-.6,0-.1,0-.21.02-.31.01-.12.04-.24.08-.35Zm.58-1.49c.16-.18.39-.28.63-.31.05,0,.11-.02.15-.02.24,0,.47.06.66.2.16.13.25.32.26.52.02.07.02.13,0,.2,0,.08-.01.18-.03.32h-2.12c.05-.35.2-.67.44-.92Z"/></g></svg>