<?xml version="1.0" encoding="UTF-8" standalone="no"?>
<!-- Generator: Adobe Illustrator 25.0.1, SVG Export Plug-In . SVG Version: 6.00 Build 0)  -->

<svg
   version="1.1"
   x="0px"
   y="0px"
   viewBox="0 0 5000 5000"
   style="enable-background:new 0 0 5000 5000;"
   xml:space="preserve"
   id="svg370"
   xmlns="http://www.w3.org/2000/svg"
   xmlns:svg="http://www.w3.org/2000/svg"><defs
   id="defs370" />
<style
   type="text/css"
   id="style1">
	.st0{fill:url(#SVGID_1_);}
	.st1{fill:url(#SVGID_2_);}
	.st2{opacity:0.2;fill:url(#SVGID_3_);}
	.st3{fill:url(#SVGID_4_);}
	.st4{fill:url(#SVGID_5_);}
	.st5{fill:#0B0B0B;}
	.st6{fill:url(#SVGID_6_);}
	.st7{display:none;}
	.st8{display:inline;fill:#FFFFFF;}
	.st9{display:inline;fill:url(#SVGID_7_);}
	.st10{display:inline;opacity:0.7;}
	.st11{fill:url(#SVGID_8_);}
	.st12{fill:url(#SVGID_9_);}
	.st13{fill:url(#SVGID_10_);}
	.st14{fill:url(#SVGID_11_);}
	.st15{fill:url(#SVGID_12_);}
	.st16{fill:url(#SVGID_13_);}
	.st17{fill:url(#SVGID_14_);}
	.st18{fill:url(#SVGID_15_);}
	.st19{fill:url(#SVGID_16_);}
	.st20{fill:url(#SVGID_17_);}
	.st21{fill:url(#SVGID_18_);}
	.st22{fill:url(#SVGID_19_);}
	.st23{fill:url(#SVGID_20_);}
	.st24{fill:url(#SVGID_21_);}
	.st25{opacity:0.5;fill:url(#SVGID_22_);}
	.st26{opacity:0.5;fill:url(#SVGID_23_);}
	.st27{fill:url(#SVGID_24_);}
	.st28{fill:#FFFFFF;}
	.st29{fill:url(#SVGID_25_);}
	.st30{fill:url(#SVGID_26_);}
	.st31{fill:url(#SVGID_27_);}
	.st32{fill:url(#SVGID_28_);}
	.st33{fill:url(#SVGID_29_);}
	.st34{display:inline;fill:url(#SVGID_30_);}
	.st35{display:inline;fill:url(#SVGID_31_);}
	.st36{display:inline;fill:url(#SVGID_32_);}
	.st37{display:inline;fill:url(#SVGID_33_);}
	.st38{display:inline;fill:url(#SVGID_34_);}
	.st39{display:inline;fill:url(#SVGID_35_);}
	.st40{display:inline;fill:url(#SVGID_36_);}
	.st41{display:inline;fill:url(#SVGID_37_);}
	.st42{display:inline;fill:url(#SVGID_38_);}
	.st43{display:inline;fill:url(#SVGID_39_);}
	.st44{display:inline;fill:url(#SVGID_40_);}
	.st45{display:inline;fill:url(#SVGID_41_);}
	.st46{display:inline;fill:url(#SVGID_42_);}
	.st47{display:inline;fill:url(#SVGID_43_);}
	.st48{fill:url(#SVGID_44_);}
	.st49{fill:url(#SVGID_45_);}
	.st50{fill:url(#SVGID_46_);}
	.st51{fill:url(#SVGID_47_);}
	.st52{fill:none;stroke:#FFFFFF;stroke-miterlimit:10;}
	.st53{fill:url(#SVGID_48_);}
	.st54{fill:url(#SVGID_49_);}
	.st55{fill:url(#SVGID_50_);}
	.st56{fill:url(#SVGID_51_);}
	.st57{fill:url(#SVGID_52_);}
	.st58{fill:url(#SVGID_53_);}
	.st59{fill:url(#SVGID_54_);}
	.st60{fill:url(#SVGID_55_);}
	.st61{fill:url(#SVGID_56_);}
	.st62{fill:url(#SVGID_57_);}
	.st63{fill:url(#SVGID_58_);}
	.st64{fill:url(#SVGID_59_);}
	.st65{fill:url(#SVGID_60_);}
	.st66{fill:url(#SVGID_61_);stroke:url(#SVGID_62_);stroke-miterlimit:10;}
	.st67{fill:url(#SVGID_63_);stroke:url(#SVGID_64_);stroke-miterlimit:10;}
	.st68{fill:url(#SVGID_65_);stroke:url(#SVGID_66_);stroke-miterlimit:10;}
	.st69{fill:url(#SVGID_67_);stroke:url(#SVGID_68_);stroke-miterlimit:10;}
	.st70{fill:url(#SVGID_69_);stroke:url(#SVGID_70_);stroke-miterlimit:10;}
	.st71{fill:url(#SVGID_71_);stroke:url(#SVGID_72_);stroke-miterlimit:10;}
	.st72{fill:url(#SVGID_73_);stroke:url(#SVGID_74_);stroke-miterlimit:10;}
	.st73{fill:url(#SVGID_75_);stroke:url(#SVGID_76_);stroke-miterlimit:10;}
	.st74{fill:url(#SVGID_77_);stroke:url(#SVGID_78_);stroke-miterlimit:10;}
	.st75{fill:url(#SVGID_79_);stroke:url(#SVGID_80_);stroke-miterlimit:10;}
	.st76{fill:url(#SVGID_81_);stroke:url(#SVGID_82_);stroke-miterlimit:10;}
	.st77{fill:url(#SVGID_83_);stroke:url(#SVGID_84_);stroke-miterlimit:10;}
	.st78{fill:url(#SVGID_85_);stroke:url(#SVGID_86_);stroke-miterlimit:10;}
	.st79{fill:url(#SVGID_87_);stroke:url(#SVGID_88_);stroke-miterlimit:10;}
	.st80{fill:url(#SVGID_89_);}
	.st81{fill:url(#SVGID_90_);}
	.st82{fill:url(#SVGID_91_);}
	.st83{fill:url(#SVGID_92_);}
	.st84{fill:url(#SVGID_93_);}
	.st85{fill:url(#SVGID_94_);}
	.st86{fill:url(#SVGID_95_);}
	.st87{fill:url(#SVGID_96_);}
	.st88{fill:url(#SVGID_97_);}
	.st89{fill:url(#SVGID_98_);}
	.st90{fill:url(#SVGID_99_);}
	.st91{fill:url(#SVGID_100_);}
	.st92{fill:url(#SVGID_101_);}
	.st93{fill:url(#SVGID_102_);}
	.st94{fill:url(#SVGID_103_);}
	.st95{fill:url(#SVGID_104_);}
	.st96{fill:url(#SVGID_105_);}
	.st97{fill:url(#SVGID_106_);}
	.st98{fill:url(#SVGID_107_);}
</style>
<g
   id="Layer_1">
	<g
   id="g169">
		<g
   id="g168">
			<g
   id="g7">
				<linearGradient
   id="SVGID_1_"
   gradientUnits="userSpaceOnUse"
   x1="2499.9998"
   y1="-1058.7877"
   x2="2499.9998"
   y2="6193.853">
					<stop
   offset="0"
   style="stop-color:#EFA620"
   id="stop1" />
					<stop
   offset="0.032"
   style="stop-color:#AE4F26"
   id="stop2" />
					<stop
   offset="0.12"
   style="stop-color:#E99923"
   id="stop3" />
					<stop
   offset="0.5968"
   style="stop-color:#F9F295"
   id="stop4" />
					<stop
   offset="0.7903"
   style="stop-color:#E99923"
   id="stop5" />
					<stop
   offset="0.914"
   style="stop-color:#AE4F26"
   id="stop6" />
					<stop
   offset="1"
   style="stop-color:#EFA620"
   id="stop7" />
				</linearGradient>
				<path
   class="st0"
   d="M4166.07,2584.54l98.21-84.54l-98.21-84.55l89.3-93.93l-106.21-74.26l79.35-102.46l-113.2-63.09l68.51-110      l-119.04-51.22l56.93-116.42l-123.63-38.83l44.8-121.6l-126.93-26.09l32.25-125.52l-128.92-13.13l19.43-128.13l-129.6-0.08      l6.45-129.43l-128.95,12.95l-6.6-129.42l-126.98,25.87l-19.63-128.1l-123.72,38.57l-32.5-125.45L3158,966.6l-45.08-121.5      l-113.36,62.8l-57.24-116.27l-106.38,74.03l-68.78-109.83l-98.31,84.44l-79.53-102.32L2500,831.82l-89.34-93.88l-79.53,102.32      l-98.3-84.44l-68.78,109.83l-106.37-74.03l-57.23,116.26L1887.1,845.1l-45.09,121.5l-119.17-50.92l-32.49,125.45l-123.72-38.57      l-19.63,128.09l-126.98-25.87l-6.61,129.42l-128.94-12.95l6.44,129.43l-129.59,0.08l19.43,128.13l-128.93,13.13l32.25,125.52      l-126.94,26.09l44.8,121.6l-123.64,38.84l56.93,116.42l-119.04,51.23l68.5,110.01l-113.2,63.1l79.35,102.46l-106.2,74.26      l89.3,93.92L735.71,2500l98.21,84.55l-89.3,93.92l106.2,74.26L771.5,2855.2l113.19,63.09l-68.51,110.01l119.04,51.22      l-56.93,116.42l123.63,38.83l-44.8,121.6l126.94,26.08l-32.25,125.52l128.93,13.13l-19.44,128.13l129.59,0.08l-6.45,129.42      l128.94-12.95l6.61,129.42l126.99-25.87l19.63,128.1l123.72-38.56l32.5,125.45L1842,4033.4l45.09,121.51l113.36-62.81      l57.24,116.27l106.37-74.03l68.78,109.84l98.31-84.44l79.52,102.32l89.33-93.88l89.33,93.88l79.53-102.32l98.31,84.44      l68.77-109.84l106.36,74.03l57.24-116.27l113.37,62.79l45.08-121.49l119.17,50.93l32.5-125.45l123.72,38.57l19.61-128.1      l126.98,25.87l6.61-129.43l128.94,12.97l-6.45-129.44l129.6-0.08l-19.43-128.13l128.93-13.12l-32.26-125.52l126.94-26.09      l-44.79-121.6l123.64-38.84l-56.93-116.42l119.04-51.22l-68.49-110.02l113.19-63.09l-79.35-102.47l106.21-74.25L4166.07,2584.54      z M3575.67,1879.33c-6.45,0-6.43-10,0-10C3582.11,1869.33,3582.1,1879.33,3575.67,1879.33z"
   id="path7" />
			</g>
			<g
   id="g18">
				<linearGradient
   id="SVGID_2_"
   gradientUnits="userSpaceOnUse"
   x1="2499.9985"
   y1="-1535.71"
   x2="2499.9985"
   y2="6055.1304">
					<stop
   offset="0"
   style="stop-color:#EFA620"
   id="stop8" />
					<stop
   offset="0.032"
   style="stop-color:#AE4F26"
   id="stop9" />
					<stop
   offset="0.12"
   style="stop-color:#E99923"
   id="stop10" />
					<stop
   offset="0.1885"
   style="stop-color:#ECAC3C"
   id="stop11" />
					<stop
   offset="0.3109"
   style="stop-color:#F2CA62"
   id="stop12" />
					<stop
   offset="0.4238"
   style="stop-color:#F6E07E"
   id="stop13" />
					<stop
   offset="0.5227"
   style="stop-color:#F8ED8F"
   id="stop14" />
					<stop
   offset="0.5968"
   style="stop-color:#F9F295"
   id="stop15" />
					<stop
   offset="0.7903"
   style="stop-color:#E99923"
   id="stop16" />
					<stop
   offset="0.914"
   style="stop-color:#AE4F26"
   id="stop17" />
					<stop
   offset="1"
   style="stop-color:#EFA620"
   id="stop18" />
				</linearGradient>
				<path
   class="st1"
   d="M4114.33,2581.96l95.21-81.96l-95.21-81.96l86.54-91.03l-102.92-71.96l76.88-99.27l-109.66-61.12      l66.36-106.56l-115.31-49.62l55.15-112.78l-119.78-37.62l43.41-117.81l-122.99-25.28l31.25-121.63l-124.93-12.72l18.83-124.17      l-125.59-0.07l6.24-125.44l-124.97,12.55l-6.39-125.43l-123.05,25.07l-19.01-124.13l-119.87,37.37l-31.49-121.55l-115.45,49.33      l-43.68-117.7l-109.81,60.83l-55.45-112.64l-103.05,71.71l-66.64-106.41l-95.26,81.82l-77.08-99.17l-86.6,91.01l-86.6-91.01      l-77.08,99.17l-95.26-81.82l-66.64,106.41l-103.04-71.71l-55.44,112.63l-109.81-60.83l-43.68,117.7L1747,964.83l-31.48,121.54      l-119.88-37.37l-19.02,124.13l-123.05-25.07l-6.41,125.43l-124.96-12.56l6.24,125.44l-125.59,0.08l18.83,124.17l-124.94,12.72      l31.25,121.63l-122.99,25.28l43.4,117.82l-119.78,37.62l55.15,112.78l-115.31,49.63l66.36,106.56l-109.66,61.13l76.87,99.27      l-102.91,71.96l86.54,91.03L790.45,2500l95.21,81.96l-86.54,91.03l102.91,71.96l-76.87,99.27l109.66,61.11l-66.36,106.57      l115.31,49.62l-55.15,112.79l119.78,37.62l-43.4,117.82l122.99,25.27l-31.25,121.62l124.94,12.72l-18.83,124.17l125.59,0.08      l-6.25,125.43l124.96-12.55l6.4,125.42l123.06-25.07l19.02,124.13l119.88-37.37l31.48,121.54l115.45-49.33l43.68,117.7      l109.81-60.84l55.45,112.64l103.05-71.72l66.64,106.42l95.26-81.82l77.08,99.16l86.6-91.01l86.6,91.01l77.08-99.16l95.26,81.82      l66.63-106.42l103.04,71.72l55.45-112.63l109.81,60.83l43.67-117.7l115.46,49.34l31.49-121.55l119.87,37.37l19.01-124.13      l123.05,25.08l6.41-125.43l124.96,12.56l-6.24-125.44l125.59-0.07l-18.83-124.18l124.94-12.72l-31.26-121.62l123-25.28      l-43.39-117.82l119.78-37.63l-55.16-112.79l115.32-49.62l-66.34-106.58l109.65-61.12l-76.88-99.28l102.92-71.95L4114.33,2581.96      z M3575.67,1879.33c-6.45,0-6.43-10,0-10C3582.11,1869.33,3582.1,1879.33,3575.67,1879.33z"
   id="path18" />
			</g>
			<linearGradient
   id="SVGID_3_"
   gradientUnits="userSpaceOnUse"
   x1="2499.9985"
   y1="4207.3799"
   x2="2499.9985"
   y2="2500">
				<stop
   offset="0"
   style="stop-color:#EFA620"
   id="stop19" />
				<stop
   offset="0.032"
   style="stop-color:#AE4F26"
   id="stop20" />
				<stop
   offset="0.12"
   style="stop-color:#E99923"
   id="stop21" />
				<stop
   offset="0.1885"
   style="stop-color:#ECAC3C"
   id="stop22" />
				<stop
   offset="0.3109"
   style="stop-color:#F2CA62"
   id="stop23" />
				<stop
   offset="0.4238"
   style="stop-color:#F6E07E"
   id="stop24" />
				<stop
   offset="0.5227"
   style="stop-color:#F8ED8F"
   id="stop25" />
				<stop
   offset="0.5968"
   style="stop-color:#F9F295"
   id="stop26" />
				<stop
   offset="0.7903"
   style="stop-color:#E99923"
   id="stop27" />
				<stop
   offset="0.914"
   style="stop-color:#AE4F26"
   id="stop28" />
				<stop
   offset="1"
   style="stop-color:#EFA620"
   id="stop29" />
			</linearGradient>
			<polygon
   class="st2"
   points="799.12,2672.99 902.03,2744.95 825.16,2844.22 934.83,2905.34 868.46,3011.91 983.78,3061.52      928.62,3174.31 1048.4,3211.93 1005,3329.74 1127.99,3355.02 1096.74,3476.64 1221.68,3489.36 1202.84,3613.53 1328.44,3613.61      1322.19,3739.04 1447.15,3726.49 1453.55,3851.92 1576.61,3826.85 1595.63,3950.98 1715.51,3913.62 1746.99,4035.16      1862.44,3985.83 1906.11,4103.53 2015.93,4042.69 2071.38,4155.33 2174.42,4083.61 2241.06,4190.03 2336.32,4108.22      2413.4,4207.38 2500,4116.37 2586.6,4207.38 2663.68,4108.22 2758.94,4190.03 2825.57,4083.61 2928.61,4155.33 2984.06,4042.7      3093.88,4103.53 3137.54,3985.83 3253,4035.17 3284.49,3913.62 3404.36,3950.99 3423.37,3826.86 3546.42,3851.94      3552.83,3726.51 3677.79,3739.07 3671.55,3613.63 3797.14,3613.56 3778.31,3489.38 3903.25,3476.67 3871.99,3355.04      3994.99,3329.76 3951.6,3211.95 4071.37,3174.32 4016.22,3061.54 4131.54,3011.92 4065.19,2905.34 4174.84,2844.22      4097.96,2744.94 4200.88,2672.99 4114.33,2581.96 4209.54,2500 790.45,2500 885.67,2581.96    "
   id="polygon29" />
			<linearGradient
   id="SVGID_4_"
   gradientUnits="userSpaceOnUse"
   x1="2500"
   y1="949.5916"
   x2="2500"
   y2="4075.9478">
				<stop
   offset="0"
   style="stop-color:#573400"
   id="stop30" />
				<stop
   offset="0.0898"
   style="stop-color:#B28F40"
   id="stop31" />
				<stop
   offset="0.1367"
   style="stop-color:#E4C163"
   id="stop32" />
				<stop
   offset="0.2531"
   style="stop-color:#FFEF99"
   id="stop33" />
				<stop
   offset="0.3686"
   style="stop-color:#FFED97"
   id="stop34" />
				<stop
   offset="0.4737"
   style="stop-color:#E0C669"
   id="stop35" />
				<stop
   offset="1"
   style="stop-color:#FFED97"
   id="stop36" />
			</linearGradient>
			<path
   class="st3"
   d="M3580.87,1419.14C3292.16,1130.43,2908.29,971.43,2500,971.43c-408.3,0-792.16,159-1080.86,447.71     C1130.43,1707.84,971.43,2091.7,971.43,2500c0,408.29,159,792.16,447.71,1080.87c288.71,288.71,672.57,447.71,1080.86,447.71     c408.29,0,792.15-159,1080.87-447.71c288.71-288.71,447.71-672.57,447.71-1080.87     C4028.57,2091.7,3869.57,1707.85,3580.87,1419.14z M3575.67,1879.33c-6.45,0-6.43-10,0-10     C3582.11,1869.33,3582.1,1879.33,3575.67,1879.33z"
   id="path36" />
			<linearGradient
   id="SVGID_5_"
   gradientUnits="userSpaceOnUse"
   x1="2499.9985"
   y1="-404.282"
   x2="2499.9985"
   y2="5509.9849">
				<stop
   offset="0"
   style="stop-color:#EFA620"
   id="stop37" />
				<stop
   offset="0.032"
   style="stop-color:#AE4F26"
   id="stop38" />
				<stop
   offset="0.12"
   style="stop-color:#E99923"
   id="stop39" />
				<stop
   offset="0.5968"
   style="stop-color:#F9F295"
   id="stop40" />
				<stop
   offset="0.7903"
   style="stop-color:#E99923"
   id="stop41" />
				<stop
   offset="0.914"
   style="stop-color:#AE4F26"
   id="stop42" />
				<stop
   offset="1"
   style="stop-color:#EFA620"
   id="stop43" />
			</linearGradient>
			<path
   class="st4"
   d="M3555.13,1444.87c-281.84-281.84-656.56-437.05-1055.13-437.05c-398.58,0-773.3,155.21-1055.13,437.05     c-281.84,281.83-437.05,656.54-437.05,1055.13c0,398.58,155.21,773.3,437.05,1055.13s656.55,437.04,1055.13,437.04     c398.57,0,773.29-155.2,1055.13-437.04c281.84-281.84,437.04-656.56,437.04-1055.13     C3992.17,2101.43,3836.97,1726.71,3555.13,1444.87z M3575.67,1879.33c-6.45,0-6.43-10,0-10     C3582.11,1869.33,3582.1,1879.33,3575.67,1879.33z"
   id="path43" />
			<path
   class="st5"
   d="M3502.58,1497.43c-267.8-267.8-623.86-415.29-1002.58-415.29c-378.73,0-734.79,147.49-1002.57,415.29     c-267.8,267.78-415.29,623.84-415.29,1002.57c0,378.72,147.49,734.78,415.29,1002.58c267.79,267.79,623.85,415.28,1002.57,415.28     c378.72,0,734.77-147.48,1002.58-415.28c267.79-267.81,415.28-623.86,415.28-1002.58     C3917.86,2121.28,3770.38,1765.22,3502.58,1497.43z M3255.09,3255.09c-201.69,201.7-469.87,312.77-755.09,312.77     c-285.24,0-553.4-111.07-755.08-312.77c-201.69-201.69-312.77-469.86-312.77-755.09c0-285.24,111.08-553.4,312.77-755.08     c201.68-201.69,469.84-312.77,755.08-312.77c285.23,0,553.4,111.08,755.09,312.77c201.7,201.69,312.77,469.85,312.77,755.08     C3567.86,2785.23,3456.79,3053.4,3255.09,3255.09z M3575.67,1879.33c-6.45,0-6.43-10,0-10     C3582.11,1869.33,3582.1,1879.33,3575.67,1879.33z"
   id="path44" />
			<linearGradient
   id="SVGID_6_"
   gradientUnits="userSpaceOnUse"
   x1="2499.998"
   y1="1082.1431"
   x2="2499.998"
   y2="2629.7227">
				<stop
   offset="0"
   style="stop-color:#575756"
   id="stop44" />
				<stop
   offset="1"
   style="stop-color:#000000"
   id="stop45" />
			</linearGradient>
			<path
   class="st6"
   d="M3502.58,1497.43c-267.8-267.8-623.86-415.29-1002.58-415.29c-378.73,0-734.79,147.49-1002.57,415.29     c-191.36,191.34-321.24,427.77-379.82,685.32c74.16,156.44,175.48,300.63,301.53,426.68c6.86,6.86,13.82,13.57,20.78,20.29     c-5.14-42.72-7.78-86.02-7.78-129.72c0-285.24,111.08-553.4,312.77-755.08c201.68-201.69,469.84-312.77,755.08-312.77     c285.23,0,553.4,111.08,755.09,312.77c201.7,201.69,312.77,469.85,312.77,755.08c0,43.7-2.64,87-7.78,129.72     c6.97-6.71,13.93-13.43,20.79-20.29c126.05-126.05,227.36-270.25,301.52-426.68C3823.81,1925.21,3693.93,1688.78,3502.58,1497.43     z M3575.67,1879.33c-6.45,0-6.43-10,0-10C3582.11,1869.33,3582.1,1879.33,3575.67,1879.33z"
   id="path45" />
			<g
   class="st7"
   id="g88">
				<path
   class="st8"
   d="M1366.17,1871.86l-5.15-2.73c-13.02-6.91-26.05-7.23-31.84,3.68c-6.43,12.11,0.07,22.55,9.76,27.69      c42.71,22.67,70.68-80.5,149.73-38.54c46.04,24.43,52.33,62.33,25.96,112c-24.76,46.65-54.63,64.17-99.46,40.38l-7.57-4.02      l28.94-54.52l5.15,2.73c18.48,9.81,29.16,5.77,34.95-5.13c6.27-11.81,0.56-23-11.25-29.27      c-42.71-22.67-68.45,77.03-145.08,36.36c-43.92-23.31-55.17-59.17-29.92-106.72c26.2-49.37,57.43-59.19,103.77-34.6      L1366.17,1871.86z M1435.54,1640.94l52.03-61.06l224.99,113.35l-44.03,51.66l-36.84-22.84l-32.91,38.62l28.39,32.75      l-44.03,51.66L1435.54,1640.94z M1499.87,1642.61l-0.45,0.52l67.72,80.68l23.12-27.14L1499.87,1642.61z M1656.16,1492.14      l-37.39,30.11l-33.98-42.19l124.43-100.21l33.98,42.19l-37.38,30.11l119.56,148.47l-49.67,40L1656.16,1492.14z M1803.34,1320.73      l55.52-31.36l120.39,213.15l-55.52,31.36L1803.34,1320.73z M2088.48,1267.31l-1.93-5.5c-4.88-13.91-14.24-22.98-25.89-18.89      c-12.94,4.54-15.24,16.62-11.61,26.97c16.01,45.61,106.52-11.23,136.16,73.2c17.26,49.17-3.8,81.27-56.86,99.9      c-49.82,17.49-83.65,10.11-100.46-37.77l-2.84-8.08l58.23-20.44l1.93,5.5c6.93,19.73,17.51,24.01,29.16,19.92      c12.62-4.43,16-16.52,11.57-29.13c-16.01-45.61-102.52,10.19-131.25-71.65c-16.47-46.91-0.42-80.88,50.37-98.71      c52.73-18.51,82.33-4.56,99.71,44.93L2088.48,1267.31z M2254.52,1150.47l143.8-18.76l6.74,51.67l-80.57,10.51l5.41,41.47      l75.47-9.85l6.48,49.63l-75.47,9.85l13.04,99.94l-63.23,8.25L2254.52,1150.47z M2550.83,1130.5l80.06,5.25l43.5,248.18      l-67.75-4.45l-3.69-43.19l-50.63-3.32l-9.31,42.34l-67.74-4.45L2550.83,1130.5z M2587.92,1183.1l-0.68-0.05l-24.25,102.52      l35.58,2.34L2587.92,1183.1z M2881.33,1261.5c7.75-26.67,5.11-36.01-6.75-39.45c-18.44-5.36-25.72,11.09-44.19,74.64      c-18.46,63.55-21.14,81.34-2.7,86.7c14.82,4.31,22.27-7.81,35.18-52.26l59.27,17.22l-5.07,17.45      c-19.14,65.85-61.93,70.56-101.44,59.07c-68.81-20-74.01-58.65-48.46-146.56c26.12-89.89,55.92-116.22,119.47-97.75      c55.31,16.08,67.63,51.08,54.43,96.52l-4.3,14.82l-59.27-17.23L2881.33,1261.5z M3085.94,1321.73l-42.38-22.57l25.47-47.82      l141.04,75.12l-25.47,47.82l-42.38-22.57l-89.62,168.28l-56.3-29.98L3085.94,1321.73z M3301.41,1389.94l50.64,38.76      l-148.79,194.39l-50.64-38.76L3301.41,1389.94z M3507.74,1568.46c44.06,47.96,32.89,88.49-34.51,150.42      c-67.4,61.93-108.73,69.64-152.79,21.68c-44.07-47.96-32.89-88.49,34.51-150.42C3422.34,1528.21,3463.67,1520.5,3507.74,1568.46      z M3352.25,1711.33c12.99,14.14,27.73,3.84,76.45-40.92c48.72-44.76,60.22-58.59,47.23-72.73s-27.73-3.84-76.45,40.92      C3350.75,1683.37,3339.26,1697.19,3352.25,1711.33z M3642.47,1744.42l35.3,61.96l-110.7,110.41l0.33,0.6l131.07-74.67      l29.53,51.83l-212.68,121.17l-34.62-60.77l110.32-111.77l-0.33-0.6l-131.36,74.84l-29.53-51.83L3642.47,1744.42z"
   id="path46" />
				<linearGradient
   id="SVGID_7_"
   gradientUnits="userSpaceOnUse"
   x1="2502.5613"
   y1="2032.0571"
   x2="2502.5613"
   y2="935.2061">
					<stop
   offset="0"
   style="stop-color:#EEB446"
   id="stop46" />
					<stop
   offset="0.5968"
   style="stop-color:#F9F295"
   id="stop47" />
					<stop
   offset="1"
   style="stop-color:#EEB446"
   id="stop48" />
				</linearGradient>
				<path
   class="st9"
   d="M1366.17,1879l-5.15-2.73c-13.02-6.91-26.05-7.23-31.84,3.68c-6.43,12.11,0.07,22.55,9.76,27.69      c42.71,22.67,70.68-80.5,149.73-38.54c46.04,24.44,52.33,62.33,25.96,112c-24.76,46.64-54.63,64.17-99.46,40.38l-7.57-4.02      l28.94-54.52l5.15,2.73c18.48,9.81,29.16,5.77,34.95-5.13c6.27-11.81,0.56-23-11.25-29.27      c-42.71-22.67-68.45,77.03-145.08,36.36c-43.92-23.31-55.17-59.17-29.92-106.72c26.2-49.37,57.43-59.19,103.77-34.6      L1366.17,1879z M1435.54,1648.08l52.03-61.06l224.99,113.35l-44.03,51.66l-36.84-22.84l-32.91,38.62l28.39,32.75l-44.03,51.66      L1435.54,1648.08z M1499.87,1649.75l-0.45,0.52l67.72,80.68l23.12-27.14L1499.87,1649.75z M1656.16,1499.29l-37.39,30.11      l-33.98-42.19l124.43-100.21l33.98,42.19l-37.38,30.11l119.56,148.47l-49.67,40L1656.16,1499.29z M1803.34,1327.87l55.52-31.36      l120.39,213.15l-55.52,31.36L1803.34,1327.87z M2088.48,1274.45l-1.93-5.5c-4.88-13.91-14.24-22.98-25.89-18.89      c-12.94,4.54-15.24,16.62-11.61,26.97c16.01,45.61,106.52-11.23,136.16,73.2c17.26,49.17-3.8,81.27-56.86,99.9      c-49.82,17.49-83.65,10.11-100.46-37.77l-2.84-8.08l58.23-20.45l1.93,5.5c6.93,19.73,17.51,24.01,29.16,19.92      c12.62-4.43,16-16.52,11.57-29.13c-16.01-45.61-102.52,10.19-131.25-71.65c-16.47-46.91-0.42-80.88,50.37-98.71      c52.73-18.51,82.33-4.56,99.71,44.93L2088.48,1274.45z M2254.52,1157.61l143.8-18.76l6.74,51.67l-80.57,10.51l5.41,41.47      l75.47-9.85l6.48,49.63l-75.47,9.85l13.04,99.94l-63.23,8.25L2254.52,1157.61z M2550.83,1137.64l80.06,5.25l43.5,248.18      l-67.75-4.45l-3.69-43.19l-50.63-3.32l-9.31,42.34l-67.74-4.45L2550.83,1137.64z M2587.92,1190.24l-0.68-0.05l-24.25,102.52      l35.58,2.34L2587.92,1190.24z M2881.33,1268.64c7.75-26.67,5.11-36.01-6.75-39.45c-18.44-5.36-25.72,11.09-44.19,74.64      c-18.46,63.55-21.14,81.34-2.7,86.7c14.82,4.31,22.27-7.81,35.18-52.26l59.27,17.22l-5.07,17.45      c-19.14,65.85-61.93,70.56-101.44,59.07c-68.81-20-74.01-58.65-48.46-146.56c26.12-89.89,55.92-116.22,119.47-97.75      c55.31,16.08,67.63,51.08,54.43,96.52l-4.3,14.82l-59.27-17.23L2881.33,1268.64z M3085.94,1328.87l-42.38-22.57l25.47-47.82      l141.04,75.12l-25.47,47.82l-42.38-22.57l-89.62,168.28l-56.3-29.98L3085.94,1328.87z M3301.41,1397.08l50.64,38.76      l-148.79,194.39l-50.64-38.76L3301.41,1397.08z M3507.74,1575.6c44.06,47.96,32.89,88.49-34.51,150.42      c-67.4,61.93-108.73,69.64-152.79,21.68c-44.07-47.96-32.89-88.49,34.51-150.42C3422.34,1535.36,3463.67,1527.64,3507.74,1575.6      z M3352.25,1718.47c12.99,14.14,27.73,3.84,76.45-40.92c48.72-44.76,60.22-58.59,47.23-72.73s-27.73-3.84-76.45,40.92      C3350.75,1690.51,3339.26,1704.34,3352.25,1718.47z M3642.47,1751.56l35.3,61.96l-110.7,110.41l0.33,0.6l131.07-74.67      l29.53,51.83l-212.68,121.17l-34.62-60.77l110.32-111.77l-0.33-0.6l-131.36,74.84l-29.53-51.83L3642.47,1751.56z"
   id="path48" />
				<g
   class="st10"
   id="g87">
					<linearGradient
   id="SVGID_8_"
   gradientUnits="userSpaceOnUse"
   x1="2340.4194"
   y1="1400.3315"
   x2="2340.4194"
   y2="1250.5859">
						<stop
   offset="0"
   style="stop-color:#EEB446"
   id="stop49" />
						<stop
   offset="0.5968"
   style="stop-color:#F9F295"
   id="stop50" />
						<stop
   offset="1"
   style="stop-color:#E99923"
   id="stop51" />
					</linearGradient>
					<path
   class="st11"
   d="M2286.2,1400.33l63.23-8.25l-13.04-99.94l75.47-9.85l-4.14-31.7c-46.82,3.38-93.1,9.42-138.73,17.88       L2286.2,1400.33z"
   id="path51" />
					<linearGradient
   id="SVGID_9_"
   gradientUnits="userSpaceOnUse"
   x1="2574.8276"
   y1="1391.0752"
   x2="2574.8276"
   y2="1247.4435">
						<stop
   offset="0"
   style="stop-color:#EEB446"
   id="stop52" />
						<stop
   offset="0.5968"
   style="stop-color:#F9F295"
   id="stop53" />
						<stop
   offset="1"
   style="stop-color:#E99923"
   id="stop54" />
					</linearGradient>
					<path
   class="st12"
   d="M2573.23,1249.42c-18.9-1.08-37.87-1.74-56.92-1.98l-41.04,130.56l67.74,4.45l9.31-42.34l50.63,3.32       l3.69,43.19l67.75,4.45l-23.64-134.87c-18.81-2.24-37.7-4.1-56.69-5.5l4.51,44.34l-35.58-2.34L2573.23,1249.42z"
   id="path54" />
					<linearGradient
   id="SVGID_10_"
   gradientUnits="userSpaceOnUse"
   x1="1758.4143"
   y1="1647.7505"
   x2="1758.4143"
   y2="1503.1074">
						<stop
   offset="0"
   style="stop-color:#EEB446"
   id="stop55" />
						<stop
   offset="0.5968"
   style="stop-color:#F9F295"
   id="stop56" />
						<stop
   offset="1"
   style="stop-color:#E99923"
   id="stop57" />
					</linearGradient>
					<path
   class="st13"
   d="M1775.72,1647.75l49.67-40l-84.27-104.65c-16.84,12.88-33.4,26.21-49.67,40L1775.72,1647.75z"
   id="path57" />
					<linearGradient
   id="SVGID_11_"
   gradientUnits="userSpaceOnUse"
   x1="1445.5363"
   y1="2032.0571"
   x2="1445.5363"
   y2="1858.9489">
						<stop
   offset="0"
   style="stop-color:#EEB446"
   id="stop58" />
						<stop
   offset="0.5968"
   style="stop-color:#F9F295"
   id="stop59" />
						<stop
   offset="1"
   style="stop-color:#E99923"
   id="stop60" />
					</linearGradient>
					<path
   class="st14"
   d="M1441.68,1965.66l-5.15-2.73l-28.94,54.52l7.57,4.02c44.83,23.79,74.71,6.26,99.46-40.38       c26.37-49.67,20.08-87.56-25.96-112c-30.02-15.94-52.67-10.92-71.56,0.16c-20.53,35.1-39.27,71.12-56.19,107.95       c47.04-4.15,70.35-64.04,104.46-45.94c11.81,6.27,17.52,17.46,11.25,29.27C1470.84,1971.44,1460.16,1975.47,1441.68,1965.66z"
   id="path60" />
					<linearGradient
   id="SVGID_12_"
   gradientUnits="userSpaceOnUse"
   x1="1607.7517"
   y1="1852.2324"
   x2="1607.7517"
   y2="1638.7661">
						<stop
   offset="0"
   style="stop-color:#EEB446"
   id="stop61" />
						<stop
   offset="0.5968"
   style="stop-color:#F9F295"
   id="stop62" />
						<stop
   offset="1"
   style="stop-color:#E99923"
   id="stop63" />
					</linearGradient>
					<path
   class="st15"
   d="M1598.78,1767.82l32.91-38.62l36.84,22.84l44.03-51.66l-122.28-61.61       c-13.1,13.81-25.85,27.87-38.25,42.18l38.24,22.87l-23.12,27.14l-28.61-34.08c-12.22,14.58-24.09,29.4-35.58,44.45l80.2,110.92       l44.03-51.66L1598.78,1767.82z"
   id="path63" />
					<linearGradient
   id="SVGID_13_"
   gradientUnits="userSpaceOnUse"
   x1="2104.5417"
   y1="1458.7648"
   x2="2104.5417"
   y2="1301.7998">
						<stop
   offset="0"
   style="stop-color:#EEB446"
   id="stop64" />
						<stop
   offset="0.5968"
   style="stop-color:#F9F295"
   id="stop65" />
						<stop
   offset="1"
   style="stop-color:#E99923"
   id="stop66" />
					</linearGradient>
					<path
   class="st16"
   d="M2125.94,1380.12c4.43,12.62,1.05,24.7-11.57,29.13c-11.65,4.09-22.23-0.19-29.16-19.92l-1.93-5.5       l-58.23,20.45l2.84,8.08c16.81,47.88,50.65,55.26,100.46,37.77c53.05-18.63,74.12-50.73,56.86-99.9       c-11.28-32.14-31.38-43.78-52.83-48.43c-38.83,11.86-77,25.6-114.41,41.19C2055.34,1371.93,2113.15,1343.67,2125.94,1380.12z"
   id="path66" />
					<linearGradient
   id="SVGID_14_"
   gradientUnits="userSpaceOnUse"
   x1="1918.4207"
   y1="1541.0195"
   x2="1918.4207"
   y2="1392.5747">
						<stop
   offset="0"
   style="stop-color:#EEB446"
   id="stop67" />
						<stop
   offset="0.5968"
   style="stop-color:#F9F295"
   id="stop68" />
						<stop
   offset="1"
   style="stop-color:#E99923"
   id="stop69" />
					</linearGradient>
					<path
   class="st17"
   d="M1923.73,1541.02l55.52-31.36l-66.13-117.08c-18.75,9.97-37.28,20.4-55.54,31.34L1923.73,1541.02z"
   id="path69" />
					<linearGradient
   id="SVGID_15_"
   gradientUnits="userSpaceOnUse"
   x1="3387.0854"
   y1="1778.7994"
   x2="3387.0854"
   y2="1590.9912">
						<stop
   offset="0"
   style="stop-color:#EEB446"
   id="stop70" />
						<stop
   offset="0.5968"
   style="stop-color:#F9F295"
   id="stop71" />
						<stop
   offset="1"
   style="stop-color:#E99923"
   id="stop72" />
					</linearGradient>
					<path
   class="st18"
   d="M3480.04,1719.55c-13.65-17.07-27.78-33.83-42.38-50.28c-2.84,2.64-5.81,5.39-8.96,8.28       c-48.72,44.76-63.46,55.06-76.45,40.92s-1.49-27.96,47.23-72.73c3.16-2.91,6.17-5.65,9.05-8.27       c-7.46-7.85-15.02-15.62-22.7-23.3c-7.85-7.85-15.8-15.57-23.82-23.18c-2.34,2.08-4.65,4.07-7.07,6.29       c-67.4,61.93-78.58,102.46-34.51,150.42c44.06,47.96,85.39,40.25,152.79-21.68C3475.62,1723.81,3477.78,1721.7,3480.04,1719.55       z"
   id="path72" />
					<linearGradient
   id="SVGID_16_"
   gradientUnits="userSpaceOnUse"
   x1="3503.0342"
   y1="1924.5571"
   x2="3503.0342"
   y2="1807.457">
						<stop
   offset="0"
   style="stop-color:#EEB446"
   id="stop73" />
						<stop
   offset="0.5968"
   style="stop-color:#F9F295"
   id="stop74" />
						<stop
   offset="1"
   style="stop-color:#E99923"
   id="stop75" />
					</linearGradient>
					<path
   class="st19"
   d="M3576.28,1857.93c-10.21-17.05-20.86-33.88-31.92-50.47l-114.57,65.27l29.53,51.83L3576.28,1857.93z"
   id="path75" />
					<linearGradient
   id="SVGID_17_"
   gradientUnits="userSpaceOnUse"
   x1="3218.7676"
   y1="1630.2355"
   x2="3218.7676"
   y2="1484.7725">
						<stop
   offset="0"
   style="stop-color:#EEB446"
   id="stop76" />
						<stop
   offset="0.5968"
   style="stop-color:#F9F295"
   id="stop77" />
						<stop
   offset="1"
   style="stop-color:#E99923"
   id="stop78" />
					</linearGradient>
					<path
   class="st20"
   d="M3284.92,1523.55c-16.59-13.39-33.47-26.31-50.63-38.78l-81.67,106.7l50.64,38.76L3284.92,1523.55z"
   id="path78" />
					<linearGradient
   id="SVGID_18_"
   gradientUnits="userSpaceOnUse"
   x1="3555.2944"
   y1="2022.855"
   x2="3555.2944"
   y2="1862.5313">
						<stop
   offset="0"
   style="stop-color:#EEB446"
   id="stop79" />
						<stop
   offset="0.5968"
   style="stop-color:#F9F295"
   id="stop80" />
						<stop
   offset="1"
   style="stop-color:#E99923"
   id="stop81" />
					</linearGradient>
					<path
   class="st21"
   d="M3578.96,1862.53l-98.26,99.56l34.62,60.77l114.56-65.27c-8.62-17.93-17.68-35.66-27.16-53.18       l-35.31,20.11l-0.33-0.6l29.94-29.87C3591.15,1883.48,3585.15,1872.96,3578.96,1862.53z"
   id="path81" />
					<linearGradient
   id="SVGID_19_"
   gradientUnits="userSpaceOnUse"
   x1="2837.6008"
   y1="1436.8987"
   x2="2837.6008"
   y2="1276.3008">
						<stop
   offset="0"
   style="stop-color:#EEB446"
   id="stop82" />
						<stop
   offset="0.5968"
   style="stop-color:#F9F295"
   id="stop83" />
						<stop
   offset="1"
   style="stop-color:#E99923"
   id="stop84" />
					</linearGradient>
					<path
   class="st22"
   d="M2833.87,1292c-21.12-5.8-42.42-11.01-63.88-15.7c-0.93,3.03-1.88,5.96-2.81,9.16       c-25.55,87.91-20.35,126.56,48.46,146.56c39.52,11.49,82.3,6.78,101.44-59.07l5.07-17.45l-59.27-17.22       c-12.92,44.45-20.37,56.57-35.18,52.26c-18.44-5.36-15.76-23.15,2.7-86.7C2831.6,1299.68,2832.75,1295.76,2833.87,1292z"
   id="path84" />
					<linearGradient
   id="SVGID_20_"
   gradientUnits="userSpaceOnUse"
   x1="3056.0688"
   y1="1527.1348"
   x2="3056.0688"
   y2="1378.4668">
						<stop
   offset="0"
   style="stop-color:#EEB446"
   id="stop85" />
						<stop
   offset="0.5968"
   style="stop-color:#F9F295"
   id="stop86" />
						<stop
   offset="1"
   style="stop-color:#E99923"
   id="stop87" />
					</linearGradient>
					<path
   class="st23"
   d="M3052.61,1527.13l63.22-118.71c-18.53-10.49-37.3-20.46-56.31-29.96l-63.21,118.68L3052.61,1527.13z"
   id="path87" />
				</g>
			</g>
			<g
   id="g105">
				<linearGradient
   id="SVGID_21_"
   gradientUnits="userSpaceOnUse"
   x1="2500"
   y1="1554.8993"
   x2="2500"
   y2="3427.5886">
					<stop
   offset="0"
   style="stop-color:#573400"
   id="stop88" />
					<stop
   offset="0.0898"
   style="stop-color:#B28F40"
   id="stop89" />
					<stop
   offset="0.1367"
   style="stop-color:#E4C163"
   id="stop90" />
					<stop
   offset="0.2531"
   style="stop-color:#FFEF99"
   id="stop91" />
					<stop
   offset="0.3686"
   style="stop-color:#FFED97"
   id="stop92" />
					<stop
   offset="0.4737"
   style="stop-color:#E0C669"
   id="stop93" />
					<stop
   offset="1"
   style="stop-color:#FFED97"
   id="stop94" />
				</linearGradient>
				<path
   class="st24"
   d="M2500,3426.57c-247.5,0-480.18-96.38-655.18-271.38c-175.01-175.01-271.39-407.69-271.39-655.19      c0-247.5,96.38-480.18,271.38-655.17c175-175.01,407.69-271.4,655.19-271.4c247.5,0,480.18,96.38,655.19,271.39      c175,175,271.38,407.68,271.38,655.18c0,247.5-96.38,480.19-271.38,655.2C2980.18,3330.2,2747.5,3426.57,2500,3426.57z"
   id="path94" />
				<linearGradient
   id="SVGID_22_"
   gradientUnits="userSpaceOnUse"
   x1="2500"
   y1="3520.2048"
   x2="2500"
   y2="2336.5098">
					<stop
   offset="0"
   style="stop-color:#9D7A31"
   id="stop95" />
					<stop
   offset="1"
   style="stop-color:#E4C163"
   id="stop96" />
				</linearGradient>
				<path
   class="st25"
   d="M3155.19,3155.2c-175.01,174.99-407.69,271.37-655.19,271.37c-247.5,0-480.18-96.38-655.18-271.38      c-173.38-173.38-269.54-403.38-271.31-648.31c-0.02,2.29-0.08,4.58-0.08,6.88c0,247.5,96.38,480.18,271.39,655.19      c175,175,407.68,271.38,655.18,271.38c247.5,0,480.18-96.37,655.19-271.37c175-175.01,271.38-407.71,271.38-655.2      c0-2.29-0.07-4.58-0.08-6.88C3424.71,2751.81,3328.56,2981.82,3155.19,3155.2z"
   id="path96" />
				<linearGradient
   id="SVGID_23_"
   gradientUnits="userSpaceOnUse"
   x1="1573.4307"
   y1="2026.3984"
   x2="3426.5693"
   y2="2026.3984">
					<stop
   offset="0"
   style="stop-color:#E4C163"
   id="stop97" />
					<stop
   offset="0.5595"
   style="stop-color:#FFEF99"
   id="stop98" />
					<stop
   offset="1"
   style="stop-color:#E0C669"
   id="stop99" />
				</linearGradient>
				<path
   class="st26"
   d="M1844.81,1844.83c175-175.01,407.69-271.4,655.19-271.4c247.5,0,480.18,96.38,655.19,271.39      c173.38,173.37,269.52,403.38,271.3,648.3c0.01-2.29,0.08-4.58,0.08-6.88c0-247.5-96.38-480.18-271.38-655.18      c-175.01-175.01-407.69-271.39-655.19-271.39c-247.5,0-480.18,96.38-655.19,271.4c-175,174.99-271.38,407.67-271.38,655.17      c0,2.3,0.07,4.58,0.08,6.88C1575.29,2248.2,1671.44,2018.2,1844.81,1844.83z"
   id="path99" />
				<path
   class="st5"
   d="M2500,3382.65c-235.77,0-457.42-91.8-624.12-258.52c-166.71-166.72-258.52-388.36-258.52-624.13      c0-235.77,91.81-457.42,258.52-624.11c166.7-166.72,388.36-258.53,624.13-258.53c235.76,0,457.41,91.81,624.13,258.52      c166.71,166.7,258.52,388.35,258.52,624.12c0,235.76-91.8,457.42-258.52,624.13C2957.42,3290.84,2735.76,3382.65,2500,3382.65z"
   id="path100" />
				<linearGradient
   id="SVGID_24_"
   gradientUnits="userSpaceOnUse"
   x1="2500.0002"
   y1="1617.355"
   x2="2500.0002"
   y2="3036.4678">
					<stop
   offset="0"
   style="stop-color:#575756"
   id="stop100" />
					<stop
   offset="0.0416"
   style="stop-color:#515150"
   id="stop101" />
					<stop
   offset="0.3168"
   style="stop-color:#2E2E2D"
   id="stop102" />
					<stop
   offset="0.5762"
   style="stop-color:#151514"
   id="stop103" />
					<stop
   offset="0.8112"
   style="stop-color:#050505"
   id="stop104" />
					<stop
   offset="1"
   style="stop-color:#000000"
   id="stop105" />
				</linearGradient>
				<path
   class="st27"
   d="M2500,1617.35c-235.77,0-457.43,91.81-624.13,258.53c-166.71,166.7-258.52,388.35-258.52,624.11      c0,94.48,14.78,186.67,43.17,273.98c244.63,170.58,534.97,262.49,839.47,262.49c304.49,0,594.84-91.91,839.47-262.49      c28.39-87.31,43.17-179.51,43.17-273.98c0-235.77-91.8-457.42-258.52-624.12C2957.41,1709.17,2735.76,1617.35,2500,1617.35z"
   id="path105" />
			</g>
			<g
   id="g110">
				<path
   class="st28"
   d="M2025.46,2129.95v564.66h-140.9v-302.73c0-43.71-1.05-69.98-3.14-78.82c-2.09-8.83-7.85-15.52-17.26-20.05      s-30.4-6.8-62.95-6.8h-13.95v-65.83c68.13-14.66,119.86-44.8,155.2-90.42H2025.46z M2412.6,2321.08v188.34      c0,42.79-2.33,73.94-6.98,93.47c-4.65,19.53-14.3,37.79-28.95,54.76c-14.65,16.98-32.32,29.18-53.01,36.62      c-20.7,7.44-43.83,11.16-69.41,11.16c-33.72,0-61.73-3.89-84.05-11.68s-40.11-19.94-53.36-36.45      c-13.25-16.5-22.67-33.89-28.25-52.14s-8.37-47.26-8.37-87.02v-197.06c0-51.85,4.47-90.68,13.43-116.49      c8.95-25.81,26.74-46.5,53.36-62.08c26.62-15.58,58.88-23.37,96.78-23.37c30.92,0,58.59,5.41,83.01,16.22      c24.41,10.81,42.67,24.01,54.76,39.59c12.09,15.58,20.28,33.13,24.59,52.66C2410.45,2247.14,2412.6,2278.3,2412.6,2321.08z       M2271.69,2273.65c0-29.99-1.45-48.77-4.36-56.33c-2.91-7.55-9.71-11.33-20.4-11.33c-10.46,0-17.38,4.01-20.75,12.03      c-3.37,8.02-5.06,26.57-5.06,55.63v275.53c0,32.79,1.57,52.55,4.71,59.29c3.14,6.75,9.94,10.11,20.4,10.11      s17.32-3.95,20.58-11.86c3.25-7.9,4.88-25.69,4.88-53.36V2273.65z M2795.55,2321.08v188.34c0,42.79-2.33,73.94-6.98,93.47      c-4.65,19.53-14.3,37.79-28.95,54.76c-14.65,16.98-32.32,29.18-53.01,36.62c-20.7,7.44-43.83,11.16-69.41,11.16      c-33.72,0-61.73-3.89-84.05-11.68s-40.11-19.94-53.36-36.45c-13.25-16.5-22.67-33.89-28.25-52.14      c-5.58-18.25-8.37-47.26-8.37-87.02v-197.06c0-51.85,4.47-90.68,13.43-116.49c8.95-25.81,26.74-46.5,53.36-62.08      c26.63-15.58,58.88-23.37,96.78-23.37c30.92,0,58.59,5.41,83.01,16.22c24.41,10.81,42.66,24.01,54.76,39.59      c12.09,15.58,20.29,33.13,24.59,52.66S2795.55,2278.3,2795.55,2321.08z M2654.65,2273.65c0-29.99-1.45-48.77-4.36-56.33      c-2.91-7.55-9.71-11.33-20.4-11.33c-10.46,0-17.38,4.01-20.75,12.03c-3.37,8.02-5.06,26.57-5.06,55.63v275.53      c0,32.79,1.57,52.55,4.71,59.29c3.14,6.75,9.94,10.11,20.4,10.11s17.32-3.95,20.58-11.86c3.25-7.9,4.88-25.69,4.88-53.36      V2273.65z M2997.35,2319.89v77.57c0,20.28-1.91,35.48-5.72,45.62c-3.82,10.14-12,18.97-24.55,26.51      c-12.56,7.53-29.16,11.3-49.8,11.3c-23.81,0-41.95-3.58-54.41-10.74c-12.47-7.16-20.88-15.76-25.25-25.81      c-4.37-10.04-6.56-24.46-6.56-43.25v-81.19c0-22.32,2.27-38.83,6.84-49.53c4.55-10.69,13.34-19.39,26.37-26.09      c13.02-6.7,29.11-10.04,48.27-10.04c21.21,0,38.41,3.68,51.62,11.02c13.2,7.35,22.04,16.23,26.51,26.65      C2995.12,2282.32,2997.35,2298.32,2997.35,2319.89z M2925.92,2300.08c0-11.9-0.61-19.25-1.81-22.04      c-1.21-2.79-4.51-4.19-9.91-4.19c-5.02,0-8.28,1.49-9.77,4.46c-1.49,2.98-2.23,10.23-2.23,21.76v113.84      c0,13.02,0.65,20.84,1.95,23.44c1.3,2.61,4.74,3.91,10.32,3.91c4.83,0,7.95-1.49,9.35-4.46c1.4-2.97,2.09-9.95,2.09-20.93      V2300.08z M3128.77,2234.24l-176.62,469.03h-42.97l177.22-469.03H3128.77z M3206.89,2538.09v77.85      c0,20.09-1.91,35.25-5.72,45.48c-3.82,10.23-12,19.11-24.55,26.65c-12.56,7.53-29.16,11.3-49.8,11.3      c-23.63,0-41.71-3.63-54.27-10.88c-12.56-7.25-21.02-15.9-25.39-25.95c-4.37-10.04-6.56-24.37-6.56-42.97v-81.47      c0-22.13,2.27-38.55,6.84-49.25c4.55-10.69,13.34-19.43,26.37-26.23c13.02-6.79,29.11-10.18,48.27-10.18      c21.39,0,38.69,3.72,51.9,11.16c13.2,7.44,21.99,16.37,26.37,26.79C3204.7,2500.8,3206.89,2516.7,3206.89,2538.09z       M3135.46,2518.55c0-11.9-0.61-19.29-1.81-22.18c-1.21-2.88-4.51-4.33-9.91-4.33c-5.02,0-8.23,1.49-9.63,4.46      c-1.39,2.98-2.09,10.32-2.09,22.04v113.84c0,12.83,0.65,20.56,1.95,23.16c1.3,2.61,4.65,3.91,10.04,3.91      c5.02,0,8.18-1.44,9.49-4.33c1.3-2.88,1.95-9.91,1.95-21.07V2518.55z"
   id="path106" />
				<linearGradient
   id="SVGID_25_"
   gradientUnits="userSpaceOnUse"
   x1="2497.0703"
   y1="2113.8533"
   x2="2497.0703"
   y2="2701.1365">
					<stop
   offset="0"
   style="stop-color:#F9F295"
   id="stop106" />
					<stop
   offset="1"
   style="stop-color:#E99923"
   id="stop107" />
				</linearGradient>
				<path
   class="st29"
   d="M2025.46,2137.1v564.66h-140.9v-302.73c0-43.71-1.05-69.98-3.14-78.82c-2.09-8.83-7.85-15.52-17.26-20.05      s-30.4-6.8-62.95-6.8h-13.95v-65.83c68.13-14.66,119.86-44.8,155.2-90.42H2025.46z M2412.6,2328.22v188.34      c0,42.79-2.33,73.94-6.98,93.47c-4.65,19.53-14.3,37.79-28.95,54.76c-14.65,16.98-32.32,29.19-53.01,36.62      c-20.7,7.44-43.83,11.16-69.41,11.16c-33.72,0-61.73-3.89-84.05-11.68c-22.32-7.79-40.11-19.94-53.36-36.45      c-13.25-16.5-22.67-33.89-28.25-52.14s-8.37-47.26-8.37-87.02v-197.06c0-51.85,4.47-90.68,13.43-116.49      c8.95-25.81,26.74-46.5,53.36-62.08c26.62-15.58,58.88-23.37,96.78-23.37c30.92,0,58.59,5.41,83.01,16.22      s42.67,24.01,54.76,39.59c12.09,15.58,20.28,33.13,24.59,52.67C2410.45,2254.28,2412.6,2285.44,2412.6,2328.22z       M2271.69,2280.79c0-29.99-1.45-48.77-4.36-56.33c-2.91-7.55-9.71-11.33-20.4-11.33c-10.46,0-17.38,4.01-20.75,12.03      c-3.37,8.02-5.06,26.57-5.06,55.63v275.53c0,32.78,1.57,52.55,4.71,59.29c3.14,6.75,9.94,10.11,20.4,10.11      s17.32-3.95,20.58-11.86c3.25-7.9,4.88-25.69,4.88-53.36V2280.79z M2795.55,2328.22v188.34c0,42.79-2.33,73.94-6.98,93.47      c-4.65,19.53-14.3,37.79-28.95,54.76c-14.65,16.98-32.32,29.19-53.01,36.62c-20.7,7.44-43.83,11.16-69.41,11.16      c-33.72,0-61.73-3.89-84.05-11.68c-22.32-7.79-40.11-19.94-53.36-36.45c-13.25-16.5-22.67-33.89-28.25-52.14      c-5.58-18.25-8.37-47.26-8.37-87.02v-197.06c0-51.85,4.47-90.68,13.43-116.49c8.95-25.81,26.74-46.5,53.36-62.08      c26.63-15.58,58.88-23.37,96.78-23.37c30.92,0,58.59,5.41,83.01,16.22s42.66,24.01,54.76,39.59      c12.09,15.58,20.29,33.13,24.59,52.67S2795.55,2285.44,2795.55,2328.22z M2654.65,2280.79c0-29.99-1.45-48.77-4.36-56.33      c-2.91-7.55-9.71-11.33-20.4-11.33c-10.46,0-17.38,4.01-20.75,12.03s-5.06,26.57-5.06,55.63v275.53      c0,32.78,1.57,52.55,4.71,59.29c3.14,6.75,9.94,10.11,20.4,10.11s17.32-3.95,20.58-11.86c3.25-7.9,4.88-25.69,4.88-53.36      V2280.79z M2997.35,2327.04v77.57c0,20.28-1.91,35.48-5.72,45.62c-3.82,10.14-12,18.97-24.55,26.51s-29.16,11.3-49.8,11.3      c-23.81,0-41.95-3.58-54.41-10.74c-12.47-7.16-20.88-15.76-25.25-25.81c-4.37-10.04-6.56-24.46-6.56-43.25v-81.19      c0-22.32,2.27-38.83,6.84-49.53c4.55-10.69,13.34-19.39,26.37-26.09c13.02-6.7,29.11-10.04,48.27-10.04      c21.21,0,38.41,3.68,51.62,11.02c13.2,7.35,22.04,16.23,26.51,26.65C2995.12,2289.47,2997.35,2305.46,2997.35,2327.04z       M2925.92,2307.23c0-11.9-0.61-19.25-1.81-22.04c-1.21-2.79-4.51-4.19-9.91-4.19c-5.02,0-8.28,1.49-9.77,4.46      c-1.49,2.98-2.23,10.23-2.23,21.76v113.84c0,13.02,0.65,20.84,1.95,23.44c1.3,2.61,4.74,3.91,10.32,3.91      c4.83,0,7.95-1.49,9.35-4.46c1.4-2.97,2.09-9.95,2.09-20.93V2307.23z M3128.77,2241.38l-176.62,469.03h-42.97l177.22-469.03      H3128.77z M3206.89,2545.23v77.85c0,20.09-1.91,35.25-5.72,45.48c-3.82,10.23-12,19.11-24.55,26.65s-29.16,11.3-49.8,11.3      c-23.63,0-41.71-3.63-54.27-10.88c-12.56-7.25-21.02-15.9-25.39-25.95c-4.37-10.04-6.56-24.37-6.56-42.97v-81.47      c0-22.13,2.27-38.55,6.84-49.25c4.55-10.69,13.34-19.43,26.37-26.23c13.02-6.79,29.11-10.18,48.27-10.18      c21.39,0,38.69,3.73,51.9,11.16c13.2,7.44,21.99,16.37,26.37,26.79C3204.7,2507.94,3206.89,2523.84,3206.89,2545.23z       M3135.46,2525.7c0-11.9-0.61-19.29-1.81-22.18c-1.21-2.88-4.51-4.32-9.91-4.32c-5.02,0-8.23,1.49-9.63,4.46      c-1.39,2.98-2.09,10.32-2.09,22.04v113.84c0,12.83,0.65,20.56,1.95,23.16c1.3,2.61,4.65,3.91,10.04,3.91      c5.02,0,8.18-1.44,9.49-4.32c1.3-2.88,1.95-9.91,1.95-21.07V2525.7z"
   id="path107" />
				<linearGradient
   id="SVGID_26_"
   gradientUnits="userSpaceOnUse"
   x1="2497.0703"
   y1="2745.2368"
   x2="2497.0703"
   y2="2113.6248">
					<stop
   offset="0"
   style="stop-color:#EEB446"
   id="stop108" />
					<stop
   offset="0.5968"
   style="stop-color:#F9F295"
   id="stop109" />
					<stop
   offset="1"
   style="stop-color:#E99923"
   id="stop110" />
				</linearGradient>
				<path
   class="st30"
   d="M2637.21,2691.14c-31.15,0-57.06-3.53-77-10.48c-18.63-6.51-32.92-16.2-43.71-29.63      c-11.48-14.3-19.72-29.44-24.47-44.99c-4.94-16.14-7.44-43.31-7.44-80.75v-197.06c0-49.21,4.12-86.05,12.25-109.47      c7.29-21.02,21.66-37.57,43.93-50.61c23.18-13.56,52.1-20.43,85.97-20.43c27.77,0,52.78,4.84,74.33,14.38      c21.02,9.31,36.66,20.46,46.51,33.13c10.21,13.16,16.94,27.59,20.58,44.13c3.95,17.92,5.95,47.81,5.95,88.86v188.34      c0,40.9-2.15,70.68-6.4,88.51c-3.82,16.07-12.01,31.45-24.32,45.72c-12.3,14.26-26.71,24.23-44.04,30.46      C2681.08,2687.81,2660.17,2691.14,2637.21,2691.14z M2629.88,2191.7c-19.03,0-33.79,9.17-40.51,25.16      c-3.13,7.46-6.73,21.47-6.73,63.93v275.53c0,47.4,3.23,60.85,6.71,68.34c3.91,8.4,14.29,22.5,39.83,22.5      c19.09,0,33.82-9.16,40.39-25.13c3.02-7.36,6.49-21,6.49-61.52v-279.71c0-43.16-2.93-56.58-5.79-64.02      C2667.38,2209.23,2657.64,2191.7,2629.88,2191.7z M2254.25,2691.14c-31.15,0-57.06-3.53-76.99-10.48      c-18.63-6.51-32.93-16.2-43.71-29.63c-11.48-14.3-19.71-29.44-24.47-44.99c-4.94-16.14-7.44-43.31-7.44-80.75v-197.06      c0-49.21,4.12-86.05,12.25-109.47c7.29-21.02,21.66-37.57,43.94-50.61c23.17-13.56,52.1-20.43,85.96-20.43      c27.77,0,52.78,4.84,74.33,14.38c21.02,9.31,36.67,20.46,46.51,33.13c10.21,13.16,16.94,27.59,20.59,44.13      c3.95,17.93,5.95,47.83,5.95,88.86v188.34c0,40.91-2.15,70.69-6.39,88.51c-3.83,16.07-12.01,31.45-24.32,45.72      c-12.31,14.27-26.72,24.23-44.04,30.46C2298.13,2687.81,2277.22,2691.14,2254.25,2691.14z M2246.93,2191.7      c-19.03,0-33.79,9.17-40.51,25.16c-3.13,7.45-6.73,21.45-6.73,63.93v275.53c0,47.4,3.23,60.85,6.71,68.34      c3.91,8.4,14.28,22.5,39.83,22.5c19.09,0,33.82-9.16,40.39-25.13c3.03-7.35,6.5-20.98,6.5-61.52v-279.71      c0-43.14-2.93-56.57-5.79-64.01C2284.43,2209.23,2274.69,2191.7,2246.93,2191.7z M3140.42,2684.37      c7.53-3.91,11.14-9.99,12.63-13.27c2.32-5.15,3.85-12.19,3.85-29.89V2525.7c0-18.44-1.33-25.32-3.47-30.44      c-1.32-3.14-4.44-8.72-10.95-12.73c8.27,1.37,15.3,3.67,20.99,6.88c8.89,5.01,14.66,10.53,17.12,16.41      c1.82,4.34,4.88,15.27,4.88,39.41v77.85c0,21.71-2.38,32.64-4.37,38c-2.05,5.51-7.27,10.81-15.5,15.75      C3159.13,2680.71,3150.69,2683.22,3140.42,2684.37z M3105.82,2683.78c-11.38-1.57-18.36-4.3-22.55-6.72      c-8.45-4.88-13.99-10.24-16.46-15.94c-2.18-5.02-4.78-15.05-4.78-34.42v-81.47c0-23.83,2.78-35.37,5.12-40.84      c2.57-6.05,7.99-11.16,16.57-15.64c6.32-3.3,13.89-5.55,22.62-6.75c-6.77,3.88-10.16,9.46-11.61,12.55      c-2.48,5.29-4.12,12.6-4.12,31.15v113.84c0,20.35,1.55,27.42,4.23,32.76C3096.5,2675.67,3099.77,2680.39,3105.82,2683.78z       M1905.99,2680.33v-281.31c0-60.33-1.98-76.45-3.71-83.76c-2.51-10.58-9.54-25.14-28.82-34.42c-8.16-3.93-22.92-8.41-64.77-8.88      v-27.53c60.73-15.91,109.06-44.75,143.98-85.91h51.37v521.8H1905.99z M2931.23,2465.86c7.02-3.89,10.53-9.66,12-12.82      c2.96-6.3,4.12-14.72,4.12-30.02v-115.79c0-18.56-1.37-25.45-3.57-30.55c-1.33-3.04-4.4-8.41-10.76-12.32      c8.13,1.36,15.07,3.63,20.72,6.77c8.9,4.95,14.7,10.46,17.22,16.36c1.86,4.32,4.97,15.22,4.97,39.55v77.57      c0,21.91-2.36,32.8-4.35,38.08c-2.04,5.44-7.27,10.72-15.52,15.67C2949.67,2462.19,2941.35,2464.7,2931.23,2465.86z       M2895.46,2465.24c-11.06-1.56-17.84-4.19-21.92-6.53c-8.33-4.79-13.8-10.09-16.28-15.78c-2.18-5.01-4.78-15.1-4.78-34.7v-81.19      c0-25.33,3.21-36.64,5.12-41.12c2.56-6.01,7.94-11.06,16.46-15.44c6.35-3.27,13.97-5.51,22.75-6.69      c-6.63,3.76-10.05,9.12-11.54,12.08c-3.23,6.45-4.49,15.25-4.49,31.35v113.84c0,20.69,1.49,27.57,4.23,33.04      C2886.62,2457.36,2889.75,2461.88,2895.46,2465.24z"
   id="path110" />
			</g>
			<g
   id="g116">
				<linearGradient
   id="SVGID_27_"
   gradientUnits="userSpaceOnUse"
   x1="2243.5479"
   y1="2948.1167"
   x2="2395.4033"
   y2="2948.1167">
					<stop
   offset="0.3839"
   style="stop-color:#F9F295"
   id="stop111" />
					<stop
   offset="1"
   style="stop-color:#E99923"
   id="stop112" />
				</linearGradient>
				<polygon
   class="st31"
   points="2295.7,2923.44 2317.11,2874.9 2342.63,2921.43 2395.4,2926.82 2359.05,2965.44 2370.21,3017.28       2322.2,2994.66 2276.38,3021.33 2283.08,2968.71 2243.55,2933.29     "
   id="polygon112" />
				<linearGradient
   id="SVGID_28_"
   gradientUnits="userSpaceOnUse"
   x1="2424.0864"
   y1="2948.1167"
   x2="2575.9414"
   y2="2948.1167">
					<stop
   offset="0.3839"
   style="stop-color:#F9F295"
   id="stop113" />
					<stop
   offset="1"
   style="stop-color:#E99923"
   id="stop114" />
				</linearGradient>
				<polygon
   class="st32"
   points="2476.23,2923.44 2497.65,2874.9 2523.16,2921.43 2575.94,2926.82 2539.59,2965.44       2550.75,3017.28 2502.74,2994.66 2456.9,3021.33 2463.62,2968.71 2424.09,2933.29     "
   id="polygon114" />
				<linearGradient
   id="SVGID_29_"
   gradientUnits="userSpaceOnUse"
   x1="2604.6182"
   y1="2948.1167"
   x2="2756.4521"
   y2="2948.1167">
					<stop
   offset="0.3839"
   style="stop-color:#F9F295"
   id="stop115" />
					<stop
   offset="1"
   style="stop-color:#E99923"
   id="stop116" />
				</linearGradient>
				<polygon
   class="st33"
   points="2656.76,2923.44 2678.18,2874.9 2703.67,2921.43 2756.45,2926.82 2720.1,2965.44 2731.26,3017.28       2683.27,2994.66 2637.43,3021.33 2644.13,2968.71 2604.62,2933.29     "
   id="polygon116" />
			</g>
			<g
   class="st7"
   id="g158">
				<path
   class="st8"
   d="M1489.56,3203.36l47.37,67.28l-108.77,76.58l-24.87-35.32l16.87-13.56l-0.4-0.56      c-22.12,5.51-39.55-10.31-51.98-27.97c-37.3-52.99-2.82-84.4,63.34-130.98c67-47.18,113.08-60.34,156.5,1.34      c25.86,36.72,25.83,76.58-22.67,110.72l-35.53-50.45c10.37-7.3,17.63-13.67,21.29-19.19c4.51-6.1,4.35-12.28,0.21-18.17      c-12.04-17.1-27.8-8.52-81.91,29.58c-54.1,38.09-67.3,50.32-56.25,66.02c7.7,10.93,19.73,12.53,54.49-11.95l-13.03-18.51      L1489.56,3203.36z M1722.89,3303.91l-120.12,129.44c-16.09,17.34-15.01,26.76-6.22,34.93c8.8,8.16,18.28,8.54,34.37-8.8      l120.12-129.44l46.75,43.38l-109.16,117.63c-46.65,50.26-82.26,45.28-121.47,8.9s-46.83-71.53-0.18-121.79l109.16-117.63      L1722.89,3303.91z M1890.81,3437.77l68.86,41.19l-74.48,240.74l-58.27-34.85l16.41-40.13l-43.55-26.05l-27.6,33.44l-58.27-34.85      L1890.81,3437.77z M1899.83,3501.51l-0.59-0.36l-68.34,80.19l30.6,18.31L1899.83,3501.51z M2065.19,3532.61l94.67,31.46      c46.2,15.35,55.12,47.22,43.22,83.01c-10.38,31.23-29.01,47.08-58.07,42.12l-0.22,0.65c28.09,12.23,31.04,33.8,20.77,64.7      l-6.6,19.85c-4,12.04-9.08,27.33-7.78,33.18c0.76,3.15,1.31,5.85,4.45,9.43l-1.08,3.25l-64.41-21.41      c-1.86-13.99,5.71-36.76,8.85-46.19l5.19-15.62c8.76-26.35,5.82-34.91-8.82-39.78l-15.94-5.29l-30.92,93.04l-60.52-20.11      L2065.19,3532.61z M2093.05,3650.97l12.04,4c17.24,5.73,29.05-2.63,34.57-19.22c6.38-19.2,1.49-29.49-16.73-35.55l-11.71-3.89      L2093.05,3650.97z M2340.12,3605.55l79.77,8.39l33.72,249.66l-67.5-7.1l-1.99-43.3l-50.46-5.31l-10.96,41.94l-67.5-7.1      L2340.12,3605.55z M2375.11,3659.56l-0.68-0.07l-28.25,101.47l35.46,3.73L2375.11,3659.56z M2538.69,3618.61l70.88-7.73      l57.25,145.49l0.68-0.07l-16.36-149.96l59.3-6.47l26.54,243.34l-69.52,7.58l-58.66-145.69l-0.68,0.07l16.38,150.3l-59.3,6.47      L2538.69,3618.61z M2835.09,3622.56l-45.65,14.83l-16.73-51.52l151.96-49.37l16.74,51.53l-45.65,14.83l58.9,181.31l-60.65,19.71      L2835.09,3622.56z M2983.67,3509.73l126.69-70.63l25.38,45.52l-70.98,39.58l20.37,36.54l66.49-37.07l24.38,43.73l-66.49,37.07      l23.71,42.53l73.68-41.08l25.38,45.53l-129.39,72.13L2983.67,3509.73z M3172.86,3395.17l110.42-94.05l33.8,39.68l-61.87,52.7      l27.13,31.84l57.95-49.36l32.46,38.11l-57.95,49.37l31.57,37.07l64.22-54.7l33.8,39.68l-112.76,96.05L3172.86,3395.17z       M3336.46,3246.99l56.91-73.01c45.32-58.13,93.61-25.27,144.18,14.14c50.57,39.42,94.22,78.23,48.9,136.37l-56.91,73      L3336.46,3246.99z M3532.51,3318.96l7.8-10.01c15.18-19.47,8.96-28.22-43.23-68.91c-52.19-40.68-62.2-44.57-77.38-25.1l-7.8,10      L3532.51,3318.96z"
   id="path116" />
				<linearGradient
   id="SVGID_30_"
   gradientUnits="userSpaceOnUse"
   x1="2478.9443"
   y1="3870.7451"
   x2="2478.9443"
   y2="3105.7129">
					<stop
   offset="0"
   style="stop-color:#EEB446"
   id="stop117" />
					<stop
   offset="0.5968"
   style="stop-color:#F9F295"
   id="stop118" />
					<stop
   offset="1"
   style="stop-color:#E99923"
   id="stop119" />
				</linearGradient>
				<path
   class="st34"
   d="M1489.56,3210.5l47.37,67.28l-108.77,76.58l-24.87-35.32l16.87-13.56l-0.4-0.56      c-22.12,5.51-39.55-10.31-51.98-27.97c-37.3-52.99-2.82-84.4,63.34-130.98c67-47.17,113.08-60.34,156.5,1.34      c25.86,36.72,25.83,76.58-22.67,110.72l-35.53-50.45c10.37-7.3,17.63-13.67,21.29-19.19c4.51-6.1,4.35-12.28,0.21-18.17      c-12.04-17.1-27.8-8.52-81.91,29.58c-54.1,38.09-67.3,50.32-56.25,66.02c7.7,10.93,19.73,12.53,54.49-11.95l-13.03-18.51      L1489.56,3210.5z M1722.89,3311.05l-120.12,129.44c-16.09,17.34-15.01,26.76-6.22,34.93c8.8,8.16,18.28,8.54,34.37-8.8      l120.12-129.44l46.75,43.38l-109.16,117.63c-46.65,50.26-82.26,45.28-121.47,8.9s-46.83-71.53-0.18-121.79l109.16-117.63      L1722.89,3311.05z M1890.81,3444.92l68.86,41.19l-74.48,240.74l-58.27-34.85l16.41-40.13l-43.55-26.05l-27.6,33.44l-58.27-34.85      L1890.81,3444.92z M1899.83,3508.65l-0.59-0.36l-68.34,80.19l30.6,18.31L1899.83,3508.65z M2065.19,3539.75l94.67,31.46      c46.2,15.35,55.12,47.22,43.22,83.01c-10.38,31.23-29.01,47.08-58.07,42.12l-0.22,0.65c28.09,12.23,31.04,33.8,20.77,64.71      l-6.6,19.84c-4,12.04-9.08,27.33-7.78,33.18c0.76,3.15,1.31,5.85,4.45,9.43l-1.08,3.25l-64.41-21.41      c-1.86-13.99,5.71-36.76,8.85-46.19l5.19-15.62c8.76-26.35,5.82-34.91-8.82-39.78l-15.94-5.29l-30.92,93.04l-60.52-20.11      L2065.19,3539.75z M2093.05,3658.11l12.04,4c17.24,5.73,29.05-2.63,34.57-19.22c6.38-19.2,1.49-29.49-16.73-35.55l-11.71-3.89      L2093.05,3658.11z M2340.12,3612.7l79.77,8.39l33.72,249.66l-67.5-7.1l-1.99-43.3l-50.46-5.31l-10.96,41.94l-67.5-7.1      L2340.12,3612.7z M2375.11,3666.7l-0.68-0.07l-28.25,101.47l35.46,3.73L2375.11,3666.7z M2538.69,3625.75l70.88-7.73      l57.25,145.49l0.68-0.07l-16.36-149.96l59.3-6.47l26.54,243.34l-69.52,7.58l-58.66-145.69l-0.68,0.07l16.38,150.3l-59.3,6.47      L2538.69,3625.75z M2835.09,3629.7l-45.65,14.83l-16.73-51.52l151.96-49.37l16.74,51.53l-45.65,14.83l58.9,181.31l-60.65,19.71      L2835.09,3629.7z M2983.67,3516.87l126.69-70.63l25.38,45.52l-70.98,39.58l20.37,36.54l66.49-37.07l24.38,43.73l-66.49,37.07      l23.71,42.53l73.68-41.08l25.38,45.53l-129.39,72.13L2983.67,3516.87z M3172.86,3402.31l110.42-94.05l33.8,39.68l-61.87,52.7      l27.13,31.84l57.95-49.36l32.46,38.11l-57.95,49.37l31.57,37.07l64.22-54.7l33.8,39.68l-112.76,96.05L3172.86,3402.31z       M3336.46,3254.14l56.91-73.01c45.32-58.13,93.61-25.27,144.18,14.14c50.57,39.42,94.22,78.23,48.9,136.37l-56.91,73      L3336.46,3254.14z M3532.51,3326.1l7.8-10.01c15.18-19.47,8.96-28.22-43.23-68.91c-52.19-40.68-62.2-44.57-77.38-25.1l-7.8,10      L3532.51,3326.1z"
   id="path119" />
				<linearGradient
   id="SVGID_31_"
   gradientUnits="userSpaceOnUse"
   x1="2687.6606"
   y1="3741.9502"
   x2="2687.6606"
   y2="3607.0244">
					<stop
   offset="0"
   style="stop-color:#EEB446"
   id="stop120" />
					<stop
   offset="0.5968"
   style="stop-color:#F9F295"
   id="stop121" />
					<stop
   offset="1"
   style="stop-color:#E99923"
   id="stop122" />
				</linearGradient>
				<path
   class="st35"
   d="M2710.46,3607.02l-59.3,6.47l14.01,128.46c19.78-2.59,39.45-5.63,59-9.14L2710.46,3607.02z"
   id="path122" />
				<linearGradient
   id="SVGID_32_"
   gradientUnits="userSpaceOnUse"
   x1="2598.6851"
   y1="3751.6045"
   x2="2598.6851"
   y2="3618.0244">
					<stop
   offset="0"
   style="stop-color:#EEB446"
   id="stop123" />
					<stop
   offset="0.5968"
   style="stop-color:#F9F295"
   id="stop124" />
					<stop
   offset="1"
   style="stop-color:#E99923"
   id="stop125" />
				</linearGradient>
				<path
   class="st36"
   d="M2622.73,3746.84c12.03-1.16,24-2.51,35.95-4.01l-49.11-124.8l-70.88,7.73l13.72,125.85      c19.96-0.82,39.82-2.11,59.59-3.84l-3.86-35.43l0.68-0.07L2622.73,3746.84z"
   id="path125" />
				<linearGradient
   id="SVGID_33_"
   gradientUnits="userSpaceOnUse"
   x1="2857.0557"
   y1="3700.9902"
   x2="2857.0557"
   y2="3543.6387">
					<stop
   offset="0"
   style="stop-color:#EEB446"
   id="stop126" />
					<stop
   offset="0.5968"
   style="stop-color:#F9F295"
   id="stop127" />
					<stop
   offset="1"
   style="stop-color:#E99923"
   id="stop128" />
				</linearGradient>
				<path
   class="st37"
   d="M2895.75,3610l45.65-14.83l-16.74-51.53l-151.96,49.37l16.73,51.52l45.65-14.83l23.16,71.29      c20.4-6.05,40.63-12.61,60.66-19.7L2895.75,3610z"
   id="path128" />
				<linearGradient
   id="SVGID_34_"
   gradientUnits="userSpaceOnUse"
   x1="3075.8618"
   y1="3628.2578"
   x2="3075.8618"
   y2="3446.2471">
					<stop
   offset="0"
   style="stop-color:#EEB446"
   id="stop129" />
					<stop
   offset="0.5968"
   style="stop-color:#F9F295"
   id="stop130" />
					<stop
   offset="1"
   style="stop-color:#E99923"
   id="stop131" />
				</linearGradient>
				<path
   class="st38"
   d="M3085.13,3567.88l-20.37-36.54l70.98-39.58l-25.38-45.52l-126.69,70.63l62.09,111.38      c41.9-20.31,82.74-42.94,122.29-67.96l-16.43-29.48L3085.13,3567.88z"
   id="path131" />
				<linearGradient
   id="SVGID_35_"
   gradientUnits="userSpaceOnUse"
   x1="3267.5327"
   y1="3499.4277"
   x2="3267.5327"
   y2="3308.2588">
					<stop
   offset="0"
   style="stop-color:#EEB446"
   id="stop132" />
					<stop
   offset="0.5968"
   style="stop-color:#F9F295"
   id="stop133" />
					<stop
   offset="1"
   style="stop-color:#E99923"
   id="stop134" />
				</linearGradient>
				<path
   class="st39"
   d="M3340.28,3383.12l-57.95,49.36l-27.13-31.84l61.87-52.7l-33.8-39.68l-110.42,94.05l82.73,97.12      c36.93-28.04,72.54-58.21,106.62-90.57L3340.28,3383.12z"
   id="path134" />
				<linearGradient
   id="SVGID_36_"
   gradientUnits="userSpaceOnUse"
   x1="3438.6406"
   y1="3332.0869"
   x2="3438.6406"
   y2="3149.6204">
					<stop
   offset="0"
   style="stop-color:#EEB446"
   id="stop135" />
					<stop
   offset="0.5968"
   style="stop-color:#F9F295"
   id="stop136" />
					<stop
   offset="1"
   style="stop-color:#E99923"
   id="stop137" />
				</linearGradient>
				<path
   class="st40"
   d="M3393.37,3181.13l-56.91,73.01l100.01,77.95c14.2-15.93,27.94-32.18,41.23-48.7l-65.8-51.3l7.8-10      c15.18-19.47,25.19-15.58,77.38,25.1c1.93,1.51,3.67,2.88,5.48,4.3c13.25-17.59,26.02-35.47,38.27-53.65      c-1.09-0.85-2.18-1.71-3.27-2.56C3486.98,3155.85,3438.69,3122.99,3393.37,3181.13z"
   id="path137" />
				<linearGradient
   id="SVGID_37_"
   gradientUnits="userSpaceOnUse"
   x1="1516.2371"
   y1="3258.043"
   x2="1516.2371"
   y2="3105.7129">
					<stop
   offset="0"
   style="stop-color:#EEB446"
   id="stop138" />
					<stop
   offset="0.5968"
   style="stop-color:#F9F295"
   id="stop139" />
					<stop
   offset="1"
   style="stop-color:#E99923"
   id="stop140" />
				</linearGradient>
				<path
   class="st41"
   d="M1463.33,3203.84c1.88-1.33,3.71-2.63,5.7-4.03c54.1-38.09,69.86-46.68,81.91-29.58      c4.14,5.89,4.3,12.07-0.21,18.17c-3.66,5.52-10.92,11.89-21.29,19.19l35.53,50.45c48.5-34.14,48.53-74,22.67-110.72      c-43.43-61.68-89.51-48.51-156.5-1.34c-1.18,0.83-2.33,1.65-3.49,2.48C1439.01,3167.2,1450.93,3185.66,1463.33,3203.84z"
   id="path140" />
				<linearGradient
   id="SVGID_38_"
   gradientUnits="userSpaceOnUse"
   x1="1656.3391"
   y1="3405.9639"
   x2="1656.3391"
   y2="3267.6621">
					<stop
   offset="0"
   style="stop-color:#EEB446"
   id="stop141" />
					<stop
   offset="0.5968"
   style="stop-color:#F9F295"
   id="stop142" />
					<stop
   offset="1"
   style="stop-color:#E99923"
   id="stop143" />
				</linearGradient>
				<path
   class="st42"
   d="M1634.8,3405.96l88.09-94.92l-46.75-43.39l-86.35,93.05c8.01,8.46,16.12,16.85,24.39,25.12      C1620.98,3392.64,1627.87,3399.34,1634.8,3405.96z"
   id="path143" />
				<linearGradient
   id="SVGID_39_"
   gradientUnits="userSpaceOnUse"
   x1="2366.6768"
   y1="3751.2344"
   x2="2366.6768"
   y2="3612.6953">
					<stop
   offset="0"
   style="stop-color:#EEB446"
   id="stop144" />
					<stop
   offset="0.5968"
   style="stop-color:#F9F295"
   id="stop145" />
					<stop
   offset="1"
   style="stop-color:#E99923"
   id="stop146" />
				</linearGradient>
				<path
   class="st43"
   d="M2419.89,3621.09l-79.77-8.39l-44.23,123.53c18.88,3.08,37.86,5.74,56.95,7.96l21.6-77.55l0.68,0.07      l4.99,80.38c19.04,1.79,38.16,3.21,57.37,4.15L2419.89,3621.09z"
   id="path146" />
				<linearGradient
   id="SVGID_40_"
   gradientUnits="userSpaceOnUse"
   x1="1879.1714"
   y1="3611.4541"
   x2="1879.1714"
   y2="3444.915">
					<stop
   offset="0"
   style="stop-color:#EEB446"
   id="stop147" />
					<stop
   offset="0.5968"
   style="stop-color:#F9F295"
   id="stop148" />
					<stop
   offset="1"
   style="stop-color:#E99923"
   id="stop149" />
				</linearGradient>
				<path
   class="st44"
   d="M1920.89,3611.45l38.78-125.35l-68.86-41.19l-92.13,93.49c15.9,10.78,32.02,21.17,48.34,31.17l52.23-61.28      l0.59,0.36l-29.29,74.99C1887.13,3593.31,1903.91,3602.59,1920.89,3611.45z"
   id="path149" />
				<linearGradient
   id="SVGID_41_"
   gradientUnits="userSpaceOnUse"
   x1="1505.959"
   y1="3286.3838"
   x2="1505.959"
   y2="3210.5049">
					<stop
   offset="0"
   style="stop-color:#EEB446"
   id="stop150" />
					<stop
   offset="0.5968"
   style="stop-color:#F9F295"
   id="stop151" />
					<stop
   offset="1"
   style="stop-color:#E99923"
   id="stop152" />
				</linearGradient>
				<path
   class="st45"
   d="M1489.56,3210.5l-14.57,10.26c15.79,22.35,32.41,44.21,49.73,65.62l12.21-8.6L1489.56,3210.5z"
   id="path152" />
				<linearGradient
   id="SVGID_42_"
   gradientUnits="userSpaceOnUse"
   x1="1730.3779"
   y1="3473.5635"
   x2="1730.3779"
   y2="3337.1719">
					<stop
   offset="0"
   style="stop-color:#EEB446"
   id="stop153" />
					<stop
   offset="0.5968"
   style="stop-color:#F9F295"
   id="stop154" />
					<stop
   offset="1"
   style="stop-color:#E99923"
   id="stop155" />
				</linearGradient>
				<path
   class="st46"
   d="M1797.79,3380.55l-46.75-43.38l-88.07,94.9c15.87,14.28,32.04,28.1,48.5,41.49L1797.79,3380.55z"
   id="path155" />
				<linearGradient
   id="SVGID_43_"
   gradientUnits="userSpaceOnUse"
   x1="2116.5403"
   y1="3706.083"
   x2="2116.5403"
   y2="3539.7529">
					<stop
   offset="0"
   style="stop-color:#EEB446"
   id="stop156" />
					<stop
   offset="0.5968"
   style="stop-color:#F9F295"
   id="stop157" />
					<stop
   offset="1"
   style="stop-color:#E99923"
   id="stop158" />
				</linearGradient>
				<path
   class="st47"
   d="M2144.8,3696.99l0.22-0.65c29.06,4.96,47.69-10.89,58.07-42.12c11.89-35.79,2.98-67.66-43.22-83.01      l-94.67-31.46l-39.96,120.23c43.74,17.9,88.51,33.29,134.13,46.1C2155.55,3702.64,2150.77,3699.59,2144.8,3696.99z       M2139.65,3642.89c-5.51,16.59-17.32,24.95-34.57,19.22l-12.04-4l18.16-54.66l11.71,3.89      C2141.14,3613.4,2146.03,3623.7,2139.65,3642.89z"
   id="path158" />
			</g>
			<g
   id="g167">
				<g
   id="g162">
					<linearGradient
   id="SVGID_44_"
   gradientUnits="userSpaceOnUse"
   x1="3733.6426"
   y1="2708.6494"
   x2="3733.6426"
   y2="2427.0718">
						<stop
   offset="0"
   style="stop-color:#EEB446"
   id="stop159" />
						<stop
   offset="0.5968"
   style="stop-color:#F9F295"
   id="stop160" />
					</linearGradient>
					<polygon
   class="st48"
   points="3661.5,2607.18 3586.52,2536.87 3687.93,2520.1 3731.51,2427.07 3778.86,2518.23        3880.76,2530.99 3808.71,2604.14 3828.06,2705.02 3736.01,2659.08 3646.23,2708.65      "
   id="polygon160" />
					<linearGradient
   id="SVGID_45_"
   gradientUnits="userSpaceOnUse"
   x1="3733.9429"
   y1="2668.9033"
   x2="3733.9429"
   y2="2475.4707">
						<stop
   offset="0.3839"
   style="stop-color:#F9F295"
   id="stop161" />
						<stop
   offset="1"
   style="stop-color:#E99923"
   id="stop162" />
					</linearGradient>
					<polygon
   class="st49"
   points="3684.36,2599.24 3632.84,2550.93 3702.55,2539.4 3732.5,2475.47 3765.03,2538.1 3835.04,2546.86        3785.54,2597.13 3798.85,2666.49 3735.51,2634.88 3673.88,2668.9      "
   id="polygon162" />
				</g>
				<g
   id="g166">
					<linearGradient
   id="SVGID_46_"
   gradientUnits="userSpaceOnUse"
   x1="1271.7354"
   y1="2708.6494"
   x2="1271.7354"
   y2="2427.0718">
						<stop
   offset="0"
   style="stop-color:#EEB446"
   id="stop163" />
						<stop
   offset="0.5968"
   style="stop-color:#F9F295"
   id="stop164" />
					</linearGradient>
					<polygon
   class="st50"
   points="1199.59,2607.18 1124.62,2536.87 1226.03,2520.1 1269.6,2427.07 1316.95,2518.23        1418.85,2530.99 1346.8,2604.14 1366.16,2705.02 1274.11,2659.08 1184.32,2708.65      "
   id="polygon164" />
					<linearGradient
   id="SVGID_47_"
   gradientUnits="userSpaceOnUse"
   x1="1272.0356"
   y1="2668.9033"
   x2="1272.0356"
   y2="2475.4707">
						<stop
   offset="0.3839"
   style="stop-color:#F9F295"
   id="stop165" />
						<stop
   offset="1"
   style="stop-color:#E99923"
   id="stop166" />
					</linearGradient>
					<polygon
   class="st51"
   points="1222.45,2599.24 1170.93,2550.93 1240.65,2539.4 1270.59,2475.47 1303.13,2538.1        1373.14,2546.86 1323.63,2597.13 1336.94,2666.49 1273.6,2634.88 1211.97,2668.9      "
   id="polygon166" />
				</g>
			</g>
		</g>
	</g>
</g>

<g
   id="Layer_3_copy">
	<path
   class="st52"
   d="M1082.14,2412.28"
   id="path183" />
	
</g>




</svg>
