<?xml version="1.0" encoding="utf-8"?>
<!-- Generator: Adobe Illustrator 28.0.0, SVG Export Plug-In . SVG Version: 6.00 Build 0)  -->
<svg version="1.1" id="Layer_1" xmlns="http://www.w3.org/2000/svg" xmlns:xlink="http://www.w3.org/1999/xlink" x="0px" y="0px"
	 viewBox="0 0 120 120" style="enable-background:new 0 0 120 120;" xml:space="preserve">
<style type="text/css">
	.st0{opacity:0.47;}
	.st1{fill:#CCCCCC;}
	.st2{opacity:0.86;fill:#202124;enable-background:new    ;}
	.st3{fill:#FFAC33;}
</style>
<g class="st0">
	<path class="st1" d="M60,7.7c29.2,0,53,23.5,53,52.3s-23.8,52.3-53,52.3S7,88.8,7,60S30.8,7.7,60,7.7 M60,0.7C26.9,0.7,0,27.3,0,60
		s26.9,59.3,60,59.3s60-26.5,60-59.3S93.1,0.7,60,0.7z"/>
</g>
<g>
	<path class="st2" d="M87,51v2.3C87,61.9,79.9,69,71.2,69H57.7c-2.5,0-4.5-2-4.5-4.5c0-2.5,2-4.5,4.5-4.5h4.5c2.5,0,4.5,2,4.5,4.5
		h4.5c6.2,0,11.2-5,11.2-11.2V51c0-12.4-10.1-22.5-22.5-22.5S37.5,38.6,37.5,51v2.3c0,1.2-1,2.2-2.2,2.2s-2.2-1-2.2-2.2V51
		c0-14.9,12.1-27,27-27S87,36.1,87,51z"/>
	<path class="st3" d="M73.5,73.5h-3.2c-6.5,3-14,3-20.5,0h-3.2c-9.9,0-18,8.1-18,18l0,0c0,2.5,2,4.5,4.5,4.5h54c2.5,0,4.5-2,4.5-4.5
		C91.5,81.6,83.4,73.5,73.5,73.5L73.5,73.5z M48.8,65c0-0.2,0-0.3,0-0.5c0-5,4-9,9-9h4.5c3.2,0,6.2,1.7,7.8,4.5h1.2
		c3.7,0,6.7-3,6.8-6.7V51c0-9.9-8.1-18-18-18s-18,8.1-18,18C42,56.7,44.7,61.7,48.8,65z"/>
</g>
</svg>
