<?xml version="1.0" encoding="utf-8"?>
<!-- Generator: Adobe Illustrator 27.9.0, SVG Export Plug-In . SVG Version: 6.00 Build 0)  -->
<svg version="1.1" id="Layer_1" xmlns="http://www.w3.org/2000/svg" xmlns:xlink="http://www.w3.org/1999/xlink" x="0px" y="0px"
	 viewBox="0 0 120 120" style="enable-background:new 0 0 120 120;" xml:space="preserve">
<style type="text/css">
	.st0{opacity:0.47;}
	.st1{fill:#CCCCCC;}
	.st2{fill:#FFAC33;}
	.st3{opacity:0.86;fill:#202124;enable-background:new    ;}
</style>
<g class="st0">
	<path class="st1" d="M60,7.7c29.2,0,53,23.5,53,52.3s-23.8,52.3-53,52.3S7,88.8,7,60S30.8,7.7,60,7.7 M60,0.7C26.9,0.7,0,27.3,0,60
		s26.9,59.3,60,59.3s60-26.5,60-59.3S93.1,0.7,60,0.7z"/>
</g>
<path class="st2" d="M30.8,31.4c0.8-3.8,4-6.5,7.9-6.6h35.7c3-0.1,5.5,2.2,5.6,5.2c0,0.5,0,1-0.1,1.4L78.7,38h7.1
	c2.2,0,4.4,0.9,5.9,2.6l8.9,10.6c1.4,1.8,1.9,4,1.5,6.2l-2.8,15.8c2-0.1,3.7,1.5,3.8,3.4c0,0.3,0,0.6-0.1,1
	c-0.5,2.5-2.7,4.3-5.2,4.4h-4.6c0.2-7.5-5.2-13.2-13.1-13.2S64.5,74.5,62,82h-9.2c0.2-7.5-5.2-13.2-13.1-13.2
	c-6.7,0-13.2,4.2-16.4,9.9c-0.5-1-0.6-2.2-0.4-3.3L25.7,60h20.1c1.3,0,2.4-1,2.6-2.2c0.2-1-0.4-1.9-1.4-2.2c-0.2,0-0.3,0-0.5,0H26.5
	l0.8-4.4h24.5c1.3,0,2.4-1,2.6-2.2c0.2-1-0.4-1.9-1.4-2.2c-0.2,0-0.3,0-0.5,0H28.1l0.8-4.4h29c1.3,0,2.4-1,2.6-2.2
	c0.2-1-0.4-1.9-1.4-2.2c-0.2,0-0.3,0-0.5,0h-29L30.8,31.4z M92.6,60l0.5-2.6l-8.9-10.6h-7.1L74.7,60H92.6z"/>
<path class="st3" d="M57.8,42.4H22.2c-1,0-1.8-0.7-1.9-1.7c0-0.2,0-0.3,0-0.5c0.3-1.3,1.3-2.2,2.6-2.2h35.7c1,0,1.8,0.7,1.9,1.7
	c0,0.2,0,0.3,0,0.5C60.2,41.4,59.1,42.3,57.8,42.4z M52.6,46.8c1,0,1.8,0.7,1.9,1.7c0,0.2,0,0.3,0,0.5c-0.3,1.3-1.3,2.2-2.6,2.2H25
	c-1,0-1.8-0.7-1.9-1.7c0-0.2,0-0.3,0-0.5c0.3-1.3,1.3-2.2,2.6-2.2H52.6z M46.5,55.6c1,0,1.8,0.7,1.9,1.7c0,0.2,0,0.3,0,0.5
	C48.1,59,47,60,45.8,60H19c-1,0-1.8-0.7-1.9-1.7c0-0.2,0-0.3,0-0.5c0.3-1.3,1.3-2.2,2.6-2.2H46.5z M48.1,84.2
	c-1.3,6.3-6.7,10.8-13.1,11c-5,0.2-9.2-3.6-9.4-8.6c0-0.8,0-1.6,0.2-2.4c1.3-6.3,6.7-10.8,13.1-11c5-0.2,9.2,3.6,9.4,8.6
	C48.4,82.6,48.3,83.4,48.1,84.2L48.1,84.2z M88.2,84.2c-1.3,6.3-6.7,10.8-13.1,11c-5,0.2-9.2-3.6-9.4-8.6c0-0.8,0-1.6,0.2-2.4
	c1.3-6.3,6.7-10.8,13.1-11c5-0.2,9.2,3.6,9.4,8.6C88.5,82.6,88.4,83.4,88.2,84.2L88.2,84.2z"/>
</svg>
