<?xml version="1.0" encoding="UTF-8"?><svg id="Layer_1" xmlns="http://www.w3.org/2000/svg" viewBox="0 0 39.83 24"><defs><style>.cls-1{fill:#fff;}.cls-2{fill:#0a67b2;}</style></defs><path id="Rectangle_425" class="cls-1" d="m2.12,0h35.58c1.17,0,2.12.9,2.12,2v20c0,1.1-.95,2-2.12,2H2.12c-1.17,0-2.12-.9-2.12-2V2C0,.9.95,0,2.12,0Z"/><g id="Group_386"><path id="Path_325" class="cls-2" d="m16.96,16.67h-2.4l1.5-9.32h2.4m-5.93,0l-2.29,6.41-.27-1.38-.81-4.19c-.1-.53-.6-.9-1.14-.84h-3.79l-.04.16c.89.22,1.74.58,2.51,1.07l2.09,8.1h2.5l3.82-9.32h-2.59Zm18.9,9.32h2.21l-1.92-9.32h-1.93c-.48-.03-.93.25-1.11.69l-3.58,8.63h2.5l.5-1.38h3.05l.28,1.38h0Zm-2.64-3.3l1.26-3.49.71,3.49h-1.97Zm-3.51-3.78l.34-2c-.69-.25-1.42-.39-2.16-.41-1.19,0-4.02.53-4.02,3.09,0,2.41,3.32,2.44,3.32,3.7s-2.98,1.04-3.97.24l-.36,2.09c.86.36,1.78.54,2.71.53,1.64,0,4.11-.86,4.11-3.19s-3.35-2.65-3.35-3.7,2.34-.92,3.37-.35h0Z"/></g></svg>